<svg xmlns="http://www.w3.org/2000/svg" viewBox="0 0 1180.32 3737.91"><defs><style>.cls-1{fill:#fff;}.cls-2,.cls-3{fill:none;stroke:#fff;stroke-width:0.5px;}.cls-2{stroke-miterlimit:10;}.cls-3{stroke-linecap:round;stroke-linejoin:round;}</style></defs><title>Heavy-Stars_1</title><g id="Layer_2" data-name="Layer 2"><g id="Heavy_Stars" data-name="Heavy Stars"><circle class="cls-1" cx="1178.01" cy="77.26" r="0.86"/><circle class="cls-1" cx="1165.64" cy="81.01" r="0.63"/><circle class="cls-1" cx="1177.84" cy="90.94" r="0.47"/><circle class="cls-1" cx="1169.56" cy="48.53" r="0.28"/><circle class="cls-1" cx="1171.7" cy="50.86" r="0.28"/><circle class="cls-1" cx="1180.04" cy="59.95" r="0.28"/><circle class="cls-1" cx="1168.4" cy="96.62" r="0.28"/><circle class="cls-1" cx="1170.29" cy="98.68" r="0.28"/><circle class="cls-1" cx="1166.3" cy="97.43" r="0.28"/><circle class="cls-1" cx="607.64" cy="223.23" r="0.63"/><circle class="cls-1" cx="690.24" cy="229.84" r="0.47"/><circle class="cls-1" cx="636.54" cy="222.03" r="0.28"/><circle class="cls-1" cx="573.98" cy="304.22" r="0.28"/><circle class="cls-1" cx="669.44" cy="185" r="0.28"/><circle class="cls-1" cx="729.62" cy="286.43" r="0.47"/><circle class="cls-1" cx="745.92" cy="216.02" r="0.47"/><circle class="cls-1" cx="610.92" cy="190.73" r="0.47"/><circle class="cls-1" cx="698.61" cy="361.65" r="0.63"/><circle class="cls-1" cx="718.29" cy="521.14" r="0.47"/><circle class="cls-1" cx="692.96" cy="344.01" r="0.28"/><circle class="cls-1" cx="596.42" cy="363.01" r="0.28"/><circle class="cls-1" cx="724.79" cy="515.66" r="0.28"/><circle class="cls-1" cx="713.85" cy="325.35" r="0.47"/><circle class="cls-1" cx="690.96" cy="341.57" r="0.28"/><circle class="cls-1" cx="597.82" cy="250.77" r="0.86"/><circle class="cls-1" cx="658.48" cy="419.34" r="0.28"/><circle class="cls-1" cx="659.34" cy="422" r="0.28"/><circle class="cls-1" cx="656.24" cy="419.19" r="0.28"/><circle class="cls-1" cx="558.87" cy="451.01" r="0.28"/><circle class="cls-1" cx="913.12" cy="426.41" r="0.47"/><circle class="cls-1" cx="653.01" cy="539.22" r="0.28"/><circle class="cls-1" cx="545.83" cy="501.55" r="0.28"/><circle class="cls-1" cx="604.77" cy="540.19" r="0.28"/><circle class="cls-1" cx="509.21" cy="479.04" r="0.63"/><circle class="cls-1" cx="511.91" cy="491.98" r="0.47"/><circle class="cls-1" cx="500.5" cy="446.01" r="0.28"/><circle class="cls-1" cx="464.04" cy="389.19" r="0.75"/><circle class="cls-1" cx="485.49" cy="542.69" r="0.47"/><circle class="cls-1" cx="521.71" cy="479.58" r="0.47"/><circle class="cls-1" cx="559.1" cy="162.4" r="0.28"/><circle class="cls-1" cx="496" cy="333.02" r="0.28"/><circle class="cls-1" cx="500.94" cy="476.35" r="0.28"/><circle class="cls-1" cx="357.96" cy="103.78" r="0.63"/><circle class="cls-1" cx="409.96" cy="340.67" r="0.47"/><circle class="cls-1" cx="468.27" cy="447.3" r="0.28"/><circle class="cls-1" cx="437.29" cy="437.41" r="0.28"/><circle class="cls-1" cx="420.53" cy="422.12" r="0.28"/><circle class="cls-1" cx="432.85" cy="387.84" r="0.28"/><circle class="cls-1" cx="392.22" cy="319.31" r="0.28"/><circle class="cls-1" cx="590.29" cy="183.13" r="0.28"/><circle class="cls-1" cx="335.36" cy="287.63" r="0.75"/><circle class="cls-1" cx="356.97" cy="243.19" r="0.28"/><circle class="cls-1" cx="497.76" cy="279.64" r="0.28"/><circle class="cls-1" cx="406.09" cy="458.04" r="0.28"/><circle class="cls-1" cx="510.03" cy="169.97" r="0.63"/><circle class="cls-1" cx="493.34" cy="181.03" r="0.47"/><circle class="cls-1" cx="466.1" cy="186.97" r="0.28"/><circle class="cls-1" cx="526.21" cy="183.42" r="0.47"/><circle class="cls-1" cx="556.18" cy="183.03" r="0.28"/><circle class="cls-1" cx="554.07" cy="185.36" r="0.28"/><circle class="cls-1" cx="540.87" cy="144.67" r="0.28"/><circle class="cls-1" cx="522.99" cy="435.48" r="0.28"/><circle class="cls-1" cx="518.5" cy="438.93" r="0.47"/><circle class="cls-1" cx="82.97" cy="162.91" r="0.86"/><circle class="cls-1" cx="200.63" cy="87.6" r="0.86"/><circle class="cls-1" cx="95.45" cy="159.54" r="0.63"/><circle class="cls-1" cx="115.01" cy="142.56" r="0.47"/><circle class="cls-1" cx="83.55" cy="149.24" r="0.47"/><circle class="cls-1" cx="90.56" cy="191.89" r="0.28"/><circle class="cls-1" cx="88.5" cy="189.49" r="0.28"/><circle class="cls-1" cx="107.26" cy="161.13" r="0.28"/><circle class="cls-1" cx="107.66" cy="155.62" r="0.28"/><circle class="cls-1" cx="80.42" cy="180.15" r="0.28"/><circle class="cls-1" cx="93.15" cy="143.85" r="0.28"/><circle class="cls-1" cx="91.32" cy="141.73" r="0.28"/><circle class="cls-1" cx="95.28" cy="143.1" r="0.28"/><circle class="cls-1" cx="128.92" cy="85.1" r="0.28"/><circle class="cls-1" cx="131.66" cy="85.69" r="0.28"/><circle class="cls-1" cx="127.68" cy="86.98" r="0.28"/><circle class="cls-1" cx="114.78" cy="122.61" r="0.75"/><circle class="cls-1" cx="151.92" cy="92.62" r="0.75"/><circle class="cls-1" cx="117.06" cy="96.91" r="0.47"/><circle class="cls-1" cx="99.77" cy="127.4" r="0.47"/><circle class="cls-1" cx="115.59" cy="113.73" r="0.28"/><circle class="cls-1" cx="113.52" cy="111.33" r="0.28"/><circle class="cls-1" cx="105.45" cy="101.99" r="0.28"/><circle class="cls-1" cx="104.71" cy="135.96" r="0.28"/><circle class="cls-1" cx="177.92" cy="125.71" r="0.47"/><circle class="cls-1" cx="272.14" cy="19.32" r="0.47"/><circle class="cls-1" cx="170.17" cy="144.28" r="0.28"/><circle class="cls-1" cx="170.57" cy="138.77" r="0.28"/><circle class="cls-1" cx="182.07" cy="100.71" r="0.28"/><circle class="cls-1" cx="154.23" cy="124.89" r="0.28"/><circle class="cls-1" cx="175.95" cy="84.19" r="0.28"/><circle class="cls-1" cx="162.68" cy="110.55" r="0.47"/><circle class="cls-1" cx="167.62" cy="119.11" r="0.28"/><circle class="cls-1" cx="134.5" cy="99.12" r="0.28"/><circle class="cls-1" cx="149.75" cy="109.61" r="0.28"/><circle class="cls-1" cx="179.21" cy="69.24" r="0.63"/><circle class="cls-1" cx="187.21" cy="77.65" r="0.47"/><circle class="cls-1" cx="194.99" cy="70.14" r="0.28"/><circle class="cls-1" cx="208.38" cy="64.36" r="0.28"/><circle class="cls-1" cx="241.59" cy="58.09" r="0.47"/><circle class="cls-1" cx="280.27" cy="41.95" r="0.28"/><circle class="cls-1" cx="273.47" cy="46.18" r="0.28"/><circle class="cls-1" cx="311.98" cy="0.75" r="0.75"/><circle class="cls-1" cx="305.28" cy="16.47" r="0.28"/><circle class="cls-1" cx="240.41" cy="102.11" r="0.63"/><circle class="cls-1" cx="225.42" cy="79.86" r="0.47"/><circle class="cls-1" cx="235.02" cy="74.47" r="0.28"/><circle class="cls-1" cx="233.19" cy="72.35" r="0.28"/><circle class="cls-1" cx="237.15" cy="73.72" r="0.28"/><circle class="cls-1" cx="246.58" cy="66.58" r="0.28"/><circle class="cls-1" cx="1062.64" cy="156.04" r="0.86"/><circle class="cls-1" cx="1123.71" cy="117.81" r="0.63"/><circle class="cls-1" cx="971.73" cy="245.99" r="0.47"/><circle class="cls-1" cx="1146.59" cy="98.56" r="0.47"/><circle class="cls-1" cx="1153.79" cy="79.77" r="0.28"/><circle class="cls-1" cx="1153.55" cy="85.29" r="0.28"/><circle class="cls-1" cx="1122.63" cy="157.2" r="0.28"/><circle class="cls-1" cx="1119.88" cy="156.69" r="0.28"/><circle class="cls-1" cx="1123.82" cy="155.28" r="0.28"/><circle class="cls-1" cx="1147.41" cy="118.49" r="0.75"/><circle class="cls-1" cx="1111.18" cy="149.57" r="0.75"/><circle class="cls-1" cx="1145.9" cy="144.25" r="0.47"/><circle class="cls-1" cx="1162.27" cy="113.26" r="0.47"/><circle class="cls-1" cx="1146.87" cy="127.4" r="0.28"/><circle class="cls-1" cx="1149.01" cy="129.73" r="0.28"/><circle class="cls-1" cx="1157.35" cy="138.82" r="0.28"/><circle class="cls-1" cx="1157.08" cy="104.85" r="0.28"/><circle class="cls-1" cx="1108.29" cy="86.63" r="0.63"/><circle class="cls-1" cx="1084.21" cy="117.27" r="0.47"/><circle class="cls-1" cx="1115.46" cy="109.65" r="0.47"/><circle class="cls-1" cx="993.19" cy="226.41" r="0.47"/><circle class="cls-1" cx="1091.41" cy="98.48" r="0.28"/><circle class="cls-1" cx="1091.17" cy="103.99" r="0.28"/><circle class="cls-1" cx="1080.8" cy="142.39" r="0.28"/><circle class="cls-1" cx="1107.92" cy="117.39" r="0.28"/><circle class="cls-1" cx="1087.41" cy="158.71" r="0.28"/><circle class="cls-1" cx="1099.89" cy="131.97" r="0.47"/><circle class="cls-1" cx="1094.7" cy="123.56" r="0.28"/><circle class="cls-1" cx="1128.4" cy="142.55" r="0.28"/><circle class="cls-1" cx="1112.84" cy="132.53" r="0.28"/><circle class="cls-1" cx="1084.59" cy="173.75" r="0.63"/><circle class="cls-1" cx="1076.35" cy="165.59" r="0.47"/><circle class="cls-1" cx="1068.8" cy="173.33" r="0.28"/><circle class="cls-1" cx="1060.78" cy="187.91" r="0.47"/><circle class="cls-1" cx="1055.59" cy="179.49" r="0.28"/><circle class="cls-1" cx="1073.73" cy="188.47" r="0.28"/><circle class="cls-1" cx="953.92" cy="246.16" r="0.75"/><circle class="cls-1" cx="952.41" cy="271.92" r="0.47"/><circle class="cls-1" cx="965.34" cy="238.66" r="0.47"/><circle class="cls-1" cx="953.38" cy="255.06" r="0.28"/><circle class="cls-1" cx="955.52" cy="257.39" r="0.28"/><circle class="cls-1" cx="963.86" cy="266.49" r="0.28"/><circle class="cls-1" cx="960.15" cy="230.25" r="0.28"/><circle class="cls-1" cx="1001.9" cy="166.64" r="0.63"/><circle class="cls-1" cx="1022.45" cy="142.72" r="0.63"/><circle class="cls-1" cx="1038.09" cy="164.51" r="0.47"/><circle class="cls-1" cx="1028.65" cy="170.19" r="0.28"/><circle class="cls-1" cx="1030.55" cy="172.25" r="0.28"/><circle class="cls-1" cx="1026.55" cy="171" r="0.28"/><circle class="cls-1" cx="238.49" cy="77.13" r="0.86"/><circle class="cls-1" cx="118.16" cy="148.08" r="0.86"/><circle class="cls-1" cx="225.9" cy="80.04" r="0.63"/><circle class="cls-1" cx="181.62" cy="113.98" r="0.63"/><circle class="cls-1" cx="21.47" cy="231.79" r="0.47"/><circle class="cls-1" cx="205.73" cy="96.3" r="0.47"/><circle class="cls-1" cx="237.42" cy="90.77" r="0.47"/><circle class="cls-1" cx="214.16" cy="78.02" r="0.28"/><circle class="cls-1" cx="213.56" cy="83.51" r="0.28"/><circle class="cls-1" cx="241.67" cy="59.99" r="0.28"/><circle class="cls-1" cx="227.62" cy="95.81" r="0.28"/><circle class="cls-1" cx="229.37" cy="97.99" r="0.28"/><circle class="cls-1" cx="225.47" cy="96.48" r="0.28"/><circle class="cls-1" cx="189.72" cy="153.2" r="0.28"/><circle class="cls-1" cx="187.01" cy="152.51" r="0.28"/><circle class="cls-1" cx="191.03" cy="151.37" r="0.28"/><circle class="cls-1" cx="167.02" cy="144.85" r="0.75"/><circle class="cls-1" cx="215.78" cy="103.27" r="0.28"/><circle class="cls-1" cx="168.31" cy="81.85" r="0.63"/><circle class="cls-1" cx="142.25" cy="110.82" r="0.47"/><circle class="cls-1" cx="173.93" cy="105.3" r="0.47"/><circle class="cls-1" cx="44.18" cy="213.68" r="0.47"/><circle class="cls-1" cx="150.68" cy="92.55" r="0.28"/><circle class="cls-1" cx="150.07" cy="98.04" r="0.28"/><circle class="cls-1" cx="165.89" cy="112.51" r="0.28"/><circle class="cls-1" cx="142.69" cy="152.39" r="0.28"/><circle class="cls-1" cx="156.92" cy="126.53" r="0.47"/><circle class="cls-1" cx="152.3" cy="117.79" r="0.28"/><circle class="cls-1" cx="184.66" cy="138.99" r="0.28"/><circle class="cls-1" cx="169.81" cy="127.95" r="0.28"/><circle class="cls-1" cx="138.88" cy="167.2" r="0.63"/><circle class="cls-1" cx="131.19" cy="158.51" r="0.47"/><circle class="cls-1" cx="123.15" cy="165.73" r="0.28"/><circle class="cls-1" cx="114.18" cy="179.75" r="0.47"/><circle class="cls-1" cx="109.56" cy="171.01" r="0.28"/><circle class="cls-1" cx="127.07" cy="181.17" r="0.28"/><circle class="cls-1" cx="76.14" cy="176.06" r="0.47"/><circle class="cls-1" cx="36.89" cy="190.77" r="0.28"/><circle class="cls-1" cx="43.84" cy="186.79" r="0.28"/><circle class="cls-1" cx="3.69" cy="230.78" r="0.75"/><circle class="cls-1" cx="0.47" cy="256.38" r="0.47"/><circle class="cls-1" cx="15.58" cy="224.05" r="0.47"/><circle class="cls-1" cx="2.56" cy="239.63" r="0.28"/><circle class="cls-1" cx="4.54" cy="242.1" r="0.28"/><circle class="cls-1" cx="12.26" cy="251.73" r="0.28"/><circle class="cls-1" cx="10.96" cy="215.32" r="0.28"/><circle class="cls-1" cx="56.84" cy="154.62" r="0.63"/><circle class="cls-1" cx="78.93" cy="132.12" r="0.63"/><circle class="cls-1" cx="93.09" cy="154.9" r="0.47"/><circle class="cls-1" cx="83.3" cy="159.94" r="0.28"/><circle class="cls-1" cx="85.05" cy="162.12" r="0.28"/><circle class="cls-1" cx="81.15" cy="160.61" r="0.28"/><circle class="cls-1" cx="60.91" cy="180.37" r="0.75"/><circle class="cls-1" cx="71.46" cy="167.4" r="0.28"/><circle class="cls-1" cx="688.52" cy="49.92" r="0.28"/><circle class="cls-1" cx="850.53" cy="48.08" r="0.47"/><circle class="cls-1" cx="776.6" cy="40.81" r="0.47"/><circle class="cls-1" cx="735.04" cy="71.25" r="0.28"/><circle class="cls-1" cx="780.91" cy="121.53" r="0.28"/><circle class="cls-1" cx="759.56" cy="52.62" r="0.28"/><circle class="cls-1" cx="821.81" cy="111.18" r="0.28"/><circle class="cls-1" cx="853.14" cy="102.64" r="0.28"/><circle class="cls-1" cx="882.31" cy="116.68" r="0.28"/><circle class="cls-1" cx="867.48" cy="75.21" r="0.47"/><circle class="cls-1" cx="475.73" cy="167.69" r="0.28"/><circle class="cls-1" cx="596.39" cy="103.64" r="0.28"/><circle class="cls-1" cx="368.45" cy="76.57" r="0.47"/><circle class="cls-1" cx="418.59" cy="76.75" r="0.47"/><circle class="cls-1" cx="883.93" cy="26.98" r="0.28"/><circle class="cls-1" cx="879.54" cy="106.94" r="0.75"/><circle class="cls-1" cx="943.65" cy="35.92" r="0.47"/><circle class="cls-1" cx="991.91" cy="105.98" r="0.28"/><circle class="cls-1" cx="627.8" cy="21.71" r="0.28"/><circle class="cls-1" cx="389.58" cy="40.63" r="0.47"/><circle class="cls-1" cx="472.25" cy="47.16" r="0.28"/><circle class="cls-1" cx="716.54" cy="164.65" r="0.28"/><circle class="cls-1" cx="843.2" cy="450.85" r="0.28"/><circle class="cls-1" cx="219.62" cy="239.78" r="0.47"/><circle class="cls-1" cx="175.37" cy="219.09" r="0.28"/><circle class="cls-1" cx="170.1" cy="220.74" r="0.28"/><circle class="cls-1" cx="213.17" cy="477.78" r="0.28"/><circle class="cls-1" cx="243.08" cy="493.85" r="0.28"/><circle class="cls-1" cx="211.49" cy="476.27" r="0.28"/><circle class="cls-1" cx="152.64" cy="349" r="0.47"/><circle class="cls-1" cx="156.51" cy="353.17" r="0.28"/><circle class="cls-1" cx="158.21" cy="346.46" r="0.28"/><circle class="cls-1" cx="260.01" cy="411.88" r="0.28"/><circle class="cls-1" cx="255.8" cy="408.15" r="0.28"/><circle class="cls-1" cx="272.55" cy="461.58" r="0.28"/><circle class="cls-1" cx="312.2" cy="489.24" r="0.47"/><circle class="cls-1" cx="158.26" cy="563.43" r="0.28"/><circle class="cls-1" cx="842.01" cy="279.38" r="0.28"/><circle class="cls-1" cx="406.86" cy="339.27" r="0.28"/><circle class="cls-1" cx="379.91" cy="352.61" r="0.47"/><circle class="cls-1" cx="156.61" cy="301.97" r="0.47"/><circle class="cls-1" cx="254.37" cy="434.9" r="0.28"/><circle class="cls-1" cx="703.67" cy="270.35" r="0.28"/><circle class="cls-1" cx="783.85" cy="273.05" r="0.47"/><circle class="cls-1" cx="644.98" cy="268.64" r="0.28"/><circle class="cls-1" cx="542.83" cy="307.96" r="0.28"/><circle class="cls-1" cx="453.72" cy="428.41" r="0.75"/><circle class="cls-1" cx="651.33" cy="506.19" r="0.28"/><circle class="cls-1" cx="577.04" cy="407.71" r="0.28"/><circle class="cls-1" cx="606.4" cy="415.09" r="0.47"/><circle class="cls-1" cx="722.53" cy="485.18" r="0.28"/><circle class="cls-1" cx="780.61" cy="387.62" r="0.28"/><circle class="cls-1" cx="768.19" cy="454.43" r="0.75"/><circle class="cls-1" cx="771.56" cy="415.55" r="0.47"/><circle class="cls-1" cx="841.71" cy="397.83" r="0.28"/><circle class="cls-1" cx="705.53" cy="420.45" r="0.28"/><circle class="cls-1" cx="929.82" cy="504.42" r="0.28"/><circle class="cls-1" cx="428.27" cy="500.94" r="0.28"/><circle class="cls-1" cx="294.26" cy="552.28" r="0.47"/><circle class="cls-1" cx="542.18" cy="522.65" r="0.28"/><circle class="cls-1" cx="826.18" cy="623.04" r="0.47"/><circle class="cls-1" cx="658.68" cy="624.89" r="0.28"/><circle class="cls-1" cx="953.32" cy="642.42" r="0.28"/><circle class="cls-1" cx="392.72" cy="635.21" r="0.75"/><circle class="cls-1" cx="562.89" cy="566.8" r="0.47"/><circle class="cls-1" cx="1005.49" cy="901.43" r="0.28"/><circle class="cls-1" cx="576.95" cy="141.85" r="0.75"/><circle class="cls-1" cx="447.08" cy="149.45" r="0.47"/><circle class="cls-1" cx="716.85" cy="400.22" r="0.28"/><circle class="cls-1" cx="677.87" cy="491.4" r="0.75"/><circle class="cls-1" cx="681.24" cy="452.52" r="0.47"/><circle class="cls-1" cx="541.3" cy="109.9" r="0.28"/><circle class="cls-1" cx="215.68" cy="365.03" r="0.28"/><circle class="cls-1" cx="250.21" cy="208.84" r="0.28"/><circle class="cls-1" cx="275.21" cy="279.84" r="0.28"/><circle class="cls-1" cx="270.21" cy="287.84" r="0.28"/><line class="cls-2" x1="933.11" y1="307.51" x2="933.11" y2="317.79"/><line class="cls-2" x1="936.39" y1="312.63" x2="929.82" y2="312.63"/><line class="cls-2" x1="935.42" y1="310.31" x2="930.79" y2="314.95"/><line class="cls-2" x1="935.42" y1="314.95" x2="930.79" y2="310.31"/><circle class="cls-1" cx="878.8" cy="664.33" r="0.28"/><circle class="cls-1" cx="218.27" cy="714.54" r="0.28"/><circle class="cls-1" cx="224.06" cy="718.74" r="0.75"/><circle class="cls-1" cx="815.83" cy="671.46" r="0.28"/><circle class="cls-1" cx="146.81" cy="672.2" r="0.28"/><circle class="cls-1" cx="980.25" cy="686.17" r="0.28"/><circle class="cls-1" cx="584.05" cy="662.87" r="0.28"/><circle class="cls-1" cx="716.84" cy="694.35" r="0.28"/><circle class="cls-1" cx="453.97" cy="677.25" r="0.28"/><circle class="cls-1" cx="449.93" cy="679.79" r="0.28"/><circle class="cls-1" cx="419.73" cy="698.85" r="0.28"/><circle class="cls-1" cx="424.09" cy="674.25" r="0.28"/><circle class="cls-1" cx="352.68" cy="683.59" r="0.28"/><circle class="cls-1" cx="146.12" cy="855.7" r="0.28"/><circle class="cls-1" cx="210.18" cy="876.67" r="0.28"/><circle class="cls-1" cx="273.44" cy="953.74" r="0.28"/><circle class="cls-1" cx="883.19" cy="844.24" r="0.47"/><circle class="cls-1" cx="957.64" cy="1027.12" r="0.28"/><circle class="cls-1" cx="948.04" cy="901.24" r="0.28"/><circle class="cls-1" cx="866.24" cy="914.4" r="0.75"/><circle class="cls-1" cx="181.42" cy="988.57" r="0.28"/><circle class="cls-1" cx="810.53" cy="793.91" r="0.28"/><circle class="cls-1" cx="219.47" cy="784.22" r="0.28"/><circle class="cls-1" cx="483.31" cy="819.83" r="0.28"/><circle class="cls-1" cx="359.57" cy="848.01" r="0.28"/><circle class="cls-1" cx="457.66" cy="834.8" r="0.47"/><circle class="cls-1" cx="418.35" cy="812.68" r="0.28"/><circle class="cls-1" cx="431.95" cy="827.59" r="0.28"/><circle class="cls-1" cx="471.92" cy="872.24" r="0.28"/><circle class="cls-1" cx="401.73" cy="799.32" r="0.28"/><circle class="cls-1" cx="548.66" cy="829.68" r="0.75"/><circle class="cls-1" cx="537.01" cy="808.33" r="0.47"/><circle class="cls-1" cx="557.45" cy="822.51" r="0.28"/><circle class="cls-1" cx="583.87" cy="858.39" r="0.28"/><circle class="cls-1" cx="667.56" cy="864.43" r="0.28"/><circle class="cls-1" cx="691.64" cy="819.52" r="0.47"/><circle class="cls-1" cx="401.41" cy="758.99" r="0.47"/><circle class="cls-1" cx="717.6" cy="926.12" r="0.47"/><circle class="cls-1" cx="749.92" cy="882.45" r="0.47"/><circle class="cls-1" cx="787.48" cy="962.53" r="0.28"/><circle class="cls-1" cx="836.4" cy="798.15" r="0.28"/><circle class="cls-1" cx="534.21" cy="882.12" r="0.47"/><circle class="cls-1" cx="661.99" cy="836.62" r="0.28"/><circle class="cls-1" cx="335.45" cy="948.39" r="0.28"/><circle class="cls-1" cx="363.19" cy="913.64" r="0.47"/><circle class="cls-1" cx="389.42" cy="961.81" r="0.28"/><circle class="cls-1" cx="382.86" cy="989.87" r="0.28"/><circle class="cls-1" cx="985.92" cy="941.4" r="0.28"/><circle class="cls-1" cx="878.8" cy="1066.11" r="0.28"/><circle class="cls-1" cx="885.05" cy="1108.33" r="0.47"/><circle class="cls-1" cx="888.19" cy="1120.37" r="0.28"/><circle class="cls-1" cx="218.27" cy="1116.32" r="0.28"/><circle class="cls-1" cx="244.17" cy="1161.87" r="0.28"/><circle class="cls-1" cx="224.06" cy="1120.52" r="0.75"/><circle class="cls-1" cx="815.83" cy="1073.24" r="0.28"/><circle class="cls-1" cx="146.81" cy="1073.98" r="0.28"/><circle class="cls-1" cx="980.25" cy="1087.95" r="0.28"/><circle class="cls-1" cx="584.05" cy="1064.65" r="0.28"/><circle class="cls-1" cx="745.99" cy="1076.73" r="0.28"/><circle class="cls-1" cx="456.18" cy="1046.01" r="0.47"/><circle class="cls-1" cx="463.57" cy="1139.97" r="0.28"/><circle class="cls-1" cx="424.09" cy="1076.03" r="0.28"/><circle class="cls-1" cx="352.68" cy="1085.37" r="0.28"/><circle class="cls-1" cx="270.6" cy="1250.78" r="0.75"/><circle class="cls-1" cx="146.12" cy="1257.48" r="0.28"/><circle class="cls-1" cx="996.52" cy="1270.43" r="0.28"/><circle class="cls-1" cx="273.44" cy="1355.52" r="0.28"/><circle class="cls-1" cx="883.19" cy="1246.01" r="0.47"/><circle class="cls-1" cx="926.26" cy="1348.77" r="0.47"/><circle class="cls-1" cx="957.64" cy="1428.89" r="0.28"/><circle class="cls-1" cx="864.42" cy="1147.9" r="0.28"/><circle class="cls-1" cx="948.04" cy="1303.02" r="0.28"/><circle class="cls-1" cx="992" cy="1276.82" r="0.28"/><circle class="cls-1" cx="877.89" cy="1117.41" r="0.28"/><circle class="cls-1" cx="866.24" cy="1316.18" r="0.75"/><circle class="cls-1" cx="196.98" cy="1372.99" r="0.28"/><circle class="cls-1" cx="219.47" cy="1186" r="0.28"/><circle class="cls-1" cx="359.57" cy="1249.79" r="0.28"/><circle class="cls-1" cx="571.97" cy="1071.03" r="0.47"/><circle class="cls-1" cx="471.92" cy="1274.02" r="0.28"/><circle class="cls-1" cx="208.87" cy="1575.39" r="0.28"/><circle class="cls-1" cx="705.62" cy="1649.68" r="0.75"/><circle class="cls-1" cx="881.01" cy="1427.89" r="0.47"/><circle class="cls-1" cx="537.01" cy="1210.11" r="0.47"/><circle class="cls-1" cx="583.87" cy="1260.17" r="0.28"/><circle class="cls-1" cx="634.79" cy="1190.76" r="0.28"/><circle class="cls-1" cx="691.64" cy="1221.3" r="0.47"/><circle class="cls-1" cx="617.72" cy="1203.94" r="0.28"/><circle class="cls-1" cx="401.41" cy="1160.77" r="0.47"/><circle class="cls-1" cx="717.6" cy="1327.9" r="0.47"/><circle class="cls-1" cx="759.3" cy="1283.38" r="0.28"/><circle class="cls-1" cx="755.57" cy="1279.3" r="0.28"/><circle class="cls-1" cx="749.92" cy="1284.23" r="0.47"/><circle class="cls-1" cx="806.45" cy="1282.44" r="0.28"/><circle class="cls-1" cx="785.68" cy="1639.09" r="0.47"/><circle class="cls-1" cx="836.4" cy="1199.93" r="0.28"/><circle class="cls-1" cx="534.21" cy="1283.9" r="0.47"/><circle class="cls-1" cx="244.45" cy="1439.17" r="0.28"/><circle class="cls-1" cx="298.42" cy="1452.59" r="0.28"/><circle class="cls-1" cx="649.17" cy="1365.76" r="0.47"/><circle class="cls-1" cx="642.74" cy="1364.24" r="0.28"/><circle class="cls-1" cx="985.92" cy="1343.18" r="0.28"/><circle class="cls-1" cx="626.64" cy="1313.05" r="0.47"/><circle class="cls-1" cx="670.67" cy="1299.72" r="0.28"/><circle class="cls-1" cx="263.83" cy="1888.28" r="0.28"/><circle class="cls-1" cx="995.83" cy="1880.41" r="0.28"/><circle class="cls-1" cx="162.38" cy="1866.45" r="0.28"/><circle class="cls-1" cx="480.11" cy="1858.35" r="0.47"/><circle class="cls-1" cx="558.58" cy="1889.74" r="0.28"/><circle class="cls-1" cx="486.54" cy="1859.86" r="0.28"/><circle class="cls-1" cx="425.79" cy="1858.27" r="0.28"/><circle class="cls-1" cx="686.45" cy="1908.39" r="0.47"/><circle class="cls-1" cx="789.95" cy="1869.03" r="0.28"/><circle class="cls-1" cx="904.85" cy="1905.16" r="0.28"/><circle class="cls-1" cx="872.03" cy="1703.62" r="0.75"/><circle class="cls-1" cx="996.52" cy="1696.91" r="0.28"/><circle class="cls-1" cx="928.81" cy="1665.44" r="0.28"/><circle class="cls-1" cx="259.44" cy="1708.38" r="0.47"/><circle class="cls-1" cx="184.99" cy="1525.5" r="0.28"/><circle class="cls-1" cx="753.64" cy="1834.27" r="0.47"/><circle class="cls-1" cx="670.61" cy="1762.04" r="0.28"/><circle class="cls-1" cx="642.5" cy="1854.41" r="0.47"/><circle class="cls-1" cx="671.73" cy="1683.55" r="0.28"/><circle class="cls-1" cx="429.88" cy="1354.92" r="0.28"/><circle class="cls-1" cx="605.62" cy="1744.28" r="0.47"/><circle class="cls-1" cx="558.76" cy="1694.23" r="0.28"/><circle class="cls-1" cx="427.48" cy="1369.83" r="0.28"/><circle class="cls-1" cx="507.84" cy="1763.64" r="0.28"/><circle class="cls-1" cx="451" cy="1733.1" r="0.47"/><circle class="cls-1" cx="524.92" cy="1750.45" r="0.28"/><circle class="cls-1" cx="741.22" cy="1793.62" r="0.47"/><circle class="cls-1" cx="382.39" cy="1688.65" r="0.63"/><circle class="cls-1" cx="425.03" cy="1626.49" r="0.47"/><circle class="cls-1" cx="353.33" cy="1626.37" r="0.28"/><circle class="cls-1" cx="355.15" cy="1590.09" r="0.28"/><circle class="cls-1" cx="336.19" cy="1671.95" r="0.28"/><circle class="cls-1" cx="356.95" cy="1315.3" r="0.47"/><circle class="cls-1" cx="647.05" cy="1629.42" r="0.47"/><circle class="cls-1" cx="608.42" cy="1670.5" r="0.47"/><circle class="cls-1" cx="480.65" cy="1716" r="0.28"/><circle class="cls-1" cx="898.18" cy="1515.22" r="0.28"/><circle class="cls-1" cx="832.4" cy="1659.56" r="0.75"/><circle class="cls-1" cx="823.8" cy="1652.17" r="0.28"/><circle class="cls-1" cx="844.21" cy="1501.8" r="0.28"/><circle class="cls-1" cx="850.77" cy="1473.74" r="0.28"/><circle class="cls-1" cx="588.62" cy="1573.88" r="0.47"/><line class="cls-2" x1="345.07" y1="1384.22" x2="342.16" y2="1387.12"/><line class="cls-2" x1="345.07" y1="1387.12" x2="342.16" y2="1384.22"/><circle class="cls-1" cx="903.89" cy="2539.05" r="0.28"/><circle class="cls-1" cx="807.85" cy="2550.95" r="0.47"/><circle class="cls-1" cx="335.74" cy="2587.03" r="0.28"/><circle class="cls-1" cx="252.52" cy="2585.61" r="0.28"/><circle class="cls-1" cx="1001.25" cy="2626.93" r="0.28"/><circle class="cls-1" cx="167.81" cy="2612.97" r="0.28"/><circle class="cls-1" cx="694.08" cy="2621.89" r="0.28"/><circle class="cls-1" cx="698.13" cy="2619.35" r="0.28"/><circle class="cls-1" cx="728.33" cy="2600.28" r="0.28"/><circle class="cls-1" cx="723.96" cy="2624.89" r="0.28"/><circle class="cls-1" cx="795.38" cy="2615.55" r="0.28"/><circle class="cls-1" cx="910.28" cy="2651.68" r="0.28"/><circle class="cls-1" cx="877.45" cy="2450.14" r="0.75"/><circle class="cls-1" cx="1001.94" cy="2443.43" r="0.28"/><circle class="cls-1" cx="151.54" cy="2430.49" r="0.28"/><circle class="cls-1" cx="264.86" cy="2454.9" r="0.47"/><circle class="cls-1" cx="190.41" cy="2272.02" r="0.28"/><circle class="cls-1" cx="283.63" cy="2553.01" r="0.28"/><circle class="cls-1" cx="198.02" cy="2407.9" r="0.28"/><circle class="cls-1" cx="156.05" cy="2424.09" r="0.28"/><circle class="cls-1" cx="187.82" cy="2258.73" r="0.75"/><circle class="cls-1" cx="951.07" cy="2327.92" r="0.28"/><circle class="cls-1" cx="337.52" cy="2505.22" r="0.28"/><circle class="cls-1" cx="928.58" cy="2514.91" r="0.28"/><circle class="cls-1" cx="759.06" cy="2580.79" r="0.47"/><circle class="cls-1" cx="888.31" cy="2133.77" r="0.28"/><circle class="cls-1" cx="892.36" cy="2131.23" r="0.28"/><circle class="cls-1" cx="788.48" cy="2451.12" r="0.28"/><circle class="cls-1" cx="911.62" cy="2136.85" r="0.75"/><circle class="cls-1" cx="939.18" cy="2125.52" r="0.28"/><circle class="cls-1" cx="284.71" cy="2279.76" r="0.47"/><circle class="cls-1" cx="611.05" cy="2490.8" r="0.47"/><circle class="cls-1" cx="564.18" cy="2440.74" r="0.28"/><circle class="cls-1" cx="513.26" cy="2510.16" r="0.28"/><circle class="cls-1" cx="480.5" cy="2434.7" r="0.28"/><circle class="cls-1" cx="456.42" cy="2479.61" r="0.47"/><circle class="cls-1" cx="530.34" cy="2496.97" r="0.28"/><circle class="cls-1" cx="746.65" cy="2540.14" r="0.47"/><circle class="cls-1" cx="430.45" cy="2373.01" r="0.47"/><circle class="cls-1" cx="360.57" cy="2336.6" r="0.28"/><circle class="cls-1" cx="311.38" cy="2031.82" r="0.47"/><circle class="cls-1" cx="311.66" cy="2500.99" r="0.28"/><circle class="cls-1" cx="486.07" cy="2462.52" r="0.28"/><circle class="cls-1" cx="903.61" cy="2261.74" r="0.28"/><circle class="cls-1" cx="875.87" cy="2296.49" r="0.47"/><circle class="cls-1" cx="856.2" cy="2220.26" r="0.28"/><circle class="cls-1" cx="594.04" cy="2320.4" r="0.47"/><circle class="cls-1" cx="479.42" cy="2547.92" r="0.63"/><circle class="cls-1" cx="403.67" cy="2537.95" r="0.28"/><circle class="cls-1" cx="407.4" cy="2542.02" r="0.28"/><circle class="cls-1" cx="507.86" cy="2592.71" r="0.28"/><circle class="cls-1" cx="413.05" cy="2537.1" r="0.47"/><circle class="cls-1" cx="371.91" cy="2638.44" r="0.28"/><circle class="cls-1" cx="325.82" cy="2704.65" r="0.28"/><circle class="cls-1" cx="385.35" cy="2582.92" r="0.28"/><circle class="cls-1" cx="840.03" cy="2500.86" r="0.28"/><circle class="cls-1" cx="834.24" cy="2496.66" r="0.75"/><circle class="cls-1" cx="870.12" cy="1921.52" r="0.28"/><circle class="cls-1" cx="245.48" cy="2087.28" r="0.28"/><circle class="cls-1" cx="341.52" cy="2075.38" r="0.47"/><circle class="cls-1" cx="797.14" cy="1968.65" r="0.28"/><circle class="cls-1" cx="148.12" cy="1999.39" r="0.28"/><circle class="cls-1" cx="595.37" cy="1960.06" r="0.28"/><circle class="cls-1" cx="718.16" cy="2021.54" r="0.28"/><circle class="cls-1" cx="464.29" cy="1974.44" r="0.28"/><circle class="cls-1" cx="460.25" cy="1976.98" r="0.28"/><circle class="cls-1" cx="384.41" cy="1921.44" r="0.28"/><circle class="cls-1" cx="354" cy="2010.78" r="0.28"/><circle class="cls-1" cx="239.1" cy="1974.64" r="0.28"/><circle class="cls-1" cx="171.57" cy="2176.43" r="0.28"/><circle class="cls-1" cx="886.53" cy="2177.54" r="0.47"/><circle class="cls-1" cx="927.58" cy="2274.18" r="0.47"/><circle class="cls-1" cx="958.96" cy="2354.3" r="0.28"/><circle class="cls-1" cx="949.36" cy="2228.43" r="0.28"/><circle class="cls-1" cx="201.3" cy="2306.4" r="0.28"/><circle class="cls-1" cx="811.85" cy="2121.1" r="0.28"/><circle class="cls-1" cx="216.4" cy="2113.16" r="0.28"/><circle class="cls-1" cx="261.06" cy="2492.56" r="0.28"/><circle class="cls-1" cx="444.62" cy="2167.02" r="0.28"/><circle class="cls-1" cx="257.02" cy="2495.1" r="0.28"/><circle class="cls-1" cx="360.89" cy="2175.2" r="0.28"/><circle class="cls-1" cx="237.75" cy="2489.48" r="0.75"/><circle class="cls-1" cx="510.45" cy="1995.39" r="0.47"/><circle class="cls-1" cx="369.67" cy="2129.87" r="0.28"/><circle class="cls-1" cx="393.26" cy="2174.78" r="0.28"/><circle class="cls-1" cx="473.24" cy="2199.43" r="0.28"/><circle class="cls-1" cx="210.19" cy="2500.8" r="0.28"/><circle class="cls-1" cx="714.07" cy="2524.88" r="0.28"/><circle class="cls-1" cx="674.88" cy="2533.32" r="0.75"/><circle class="cls-1" cx="683.68" cy="2526.15" r="0.28"/><circle class="cls-1" cx="585.19" cy="2185.58" r="0.28"/><circle class="cls-1" cx="716.47" cy="2509.98" r="0.28"/><circle class="cls-1" cx="348.83" cy="2256.41" r="0.28"/><circle class="cls-1" cx="668.88" cy="2191.62" r="0.28"/><circle class="cls-1" cx="703.95" cy="2139.71" r="0.47"/><circle class="cls-1" cx="744.77" cy="2281.58" r="0.47"/><circle class="cls-1" cx="790.62" cy="2253.43" r="0.28"/><circle class="cls-1" cx="765.65" cy="2333.68" r="0.28"/><circle class="cls-1" cx="807.76" cy="2207.85" r="0.28"/><circle class="cls-1" cx="797.91" cy="2169.19" r="0.75"/><circle class="cls-1" cx="535.53" cy="2209.31" r="0.47"/><circle class="cls-1" cx="663.3" cy="2163.81" r="0.28"/><circle class="cls-1" cx="134.77" cy="2320.58" r="0.28"/><circle class="cls-1" cx="273.51" cy="2329.83" r="0.47"/><circle class="cls-1" cx="146.74" cy="2290" r="0.28"/><circle class="cls-1" cx="293.17" cy="2406.06" r="0.28"/><circle class="cls-1" cx="555.33" cy="2305.92" r="0.47"/><circle class="cls-1" cx="650.49" cy="2291.17" r="0.47"/><circle class="cls-1" cx="644.06" cy="2289.65" r="0.28"/><circle class="cls-1" cx="987.24" cy="2268.59" r="0.28"/><circle class="cls-1" cx="880.12" cy="2770.73" r="0.28"/><circle class="cls-1" cx="886.37" cy="2812.94" r="0.47"/><circle class="cls-1" cx="889.51" cy="2824.99" r="0.28"/><circle class="cls-1" cx="245.48" cy="2866.49" r="0.28"/><circle class="cls-1" cx="299.52" cy="2901.58" r="0.47"/><circle class="cls-1" cx="148.12" cy="2778.6" r="0.28"/><circle class="cls-1" cx="981.57" cy="2792.56" r="0.28"/><circle class="cls-1" cx="663.84" cy="2800.67" r="0.47"/><circle class="cls-1" cx="657.41" cy="2799.15" r="0.28"/><circle class="cls-1" cx="718.16" cy="2800.75" r="0.28"/><circle class="cls-1" cx="599.7" cy="2839.36" r="0.28"/><circle class="cls-1" cx="284" cy="2809.98" r="0.28"/><circle class="cls-1" cx="239.1" cy="2753.85" r="0.28"/><circle class="cls-1" cx="147.43" cy="2962.1" r="0.28"/><circle class="cls-1" cx="211.49" cy="2983.07" r="0.28"/><circle class="cls-1" cx="997.83" cy="2975.04" r="0.28"/><circle class="cls-1" cx="927.58" cy="3053.38" r="0.47"/><circle class="cls-1" cx="958.96" cy="3133.51" r="0.28"/><circle class="cls-1" cx="865.74" cy="2852.52" r="0.28"/><circle class="cls-1" cx="949.36" cy="3007.63" r="0.28"/><circle class="cls-1" cx="993.32" cy="2981.44" r="0.28"/><circle class="cls-1" cx="879.21" cy="2822.02" r="0.28"/><circle class="cls-1" cx="198.3" cy="3077.61" r="0.28"/><circle class="cls-1" cx="811.85" cy="2900.31" r="0.28"/><circle class="cls-1" cx="220.79" cy="2890.62" r="0.28"/><circle class="cls-1" cx="380.89" cy="2964.41" r="0.28"/><circle class="cls-1" cx="469.51" cy="2873.66" r="0.47"/><circle class="cls-1" cx="433.26" cy="2933.98" r="0.28"/><circle class="cls-1" cx="473.24" cy="2978.64" r="0.28"/><circle class="cls-1" cx="538.33" cy="2914.73" r="0.47"/><circle class="cls-1" cx="585.19" cy="2964.79" r="0.28"/><circle class="cls-1" cx="636.11" cy="2895.37" r="0.28"/><circle class="cls-1" cx="668.88" cy="2970.83" r="0.28"/><circle class="cls-1" cx="619.03" cy="2908.56" r="0.28"/><circle class="cls-1" cx="389.11" cy="2868.06" r="0.47"/><circle class="cls-1" cx="718.92" cy="3032.52" r="0.47"/><circle class="cls-1" cx="790.62" cy="3032.64" r="0.28"/><circle class="cls-1" cx="762.26" cy="3092.35" r="0.28"/><circle class="cls-1" cx="837.72" cy="2904.55" r="0.28"/><circle class="cls-1" cx="496.9" cy="3029.59" r="0.47"/><circle class="cls-1" cx="535.53" cy="2988.51" r="0.47"/><circle class="cls-1" cx="555.33" cy="3085.13" r="0.47"/><circle class="cls-1" cx="650.49" cy="3070.38" r="0.47"/><circle class="cls-1" cx="644.06" cy="3068.86" r="0.28"/><circle class="cls-1" cx="1004.17" cy="3019.67" r="0.28"/><line class="cls-3" x1="304.5" y1="85.97" x2="304.66" y2="93.59"/><line class="cls-3" x1="306.21" y1="87.69" x2="302.94" y2="91.15"/><line class="cls-3" x1="306.31" y1="91.05" x2="302.85" y2="87.78"/><line class="cls-3" x1="307.42" y1="89.33" x2="301.74" y2="89.49"/><circle class="cls-1" cx="774.69" cy="951.1" r="0.86"/><circle class="cls-1" cx="706.9" cy="926.69" r="0.63"/><circle class="cls-1" cx="901.58" cy="967.04" r="0.47"/><circle class="cls-1" cx="677.63" cy="920.58" r="0.47"/><circle class="cls-1" cx="624.09" cy="933.42" r="0.28"/><circle class="cls-1" cx="624.61" cy="930.3" r="0.28"/><circle class="cls-1" cx="658.41" cy="926.53" r="0.28"/><circle class="cls-1" cx="662.89" cy="923.31" r="0.28"/><circle class="cls-1" cx="626.61" cy="918.12" r="0.28"/><circle class="cls-1" cx="662.63" cy="904.63" r="0.28"/><circle class="cls-1" cx="663.08" cy="901.87" r="0.28"/><circle class="cls-1" cx="664.57" cy="905.78" r="0.28"/><circle class="cls-1" cx="730.66" cy="894.45" r="0.28"/><circle class="cls-1" cx="731.96" cy="896.93" r="0.28"/><circle class="cls-1" cx="728.42" cy="894.7" r="0.28"/><circle class="cls-1" cx="692.8" cy="907.62" r="0.75"/><circle class="cls-1" cx="739.62" cy="916.92" r="0.75"/><circle class="cls-1" cx="679.51" cy="899.17" r="0.47"/><circle class="cls-1" cx="700.14" cy="902.55" r="0.28"/><circle class="cls-1" cx="700.65" cy="899.43" r="0.28"/><circle class="cls-1" cx="702.65" cy="887.25" r="0.28"/><circle class="cls-1" cx="676.1" cy="908.45" r="0.28"/><circle class="cls-1" cx="705.58" cy="938.21" r="0.47"/><circle class="cls-1" cx="872.93" cy="962.25" r="0.47"/><circle class="cls-1" cx="752.73" cy="945.25" r="0.28"/><circle class="cls-1" cx="716.33" cy="939.37" r="0.28"/><circle class="cls-1" cx="761.49" cy="929.97" r="0.28"/><circle class="cls-1" cx="732.75" cy="936.67" r="0.47"/><circle class="cls-1" cx="729.34" cy="945.95" r="0.28"/><circle class="cls-1" cx="723.47" cy="907.71" r="0.28"/><circle class="cls-1" cx="725.19" cy="926.14" r="0.28"/><circle class="cls-1" cx="773.73" cy="934.42" r="0.47"/><circle class="cls-1" cx="899.76" cy="976.59" r="0.47"/><circle class="cls-1" cx="896.35" cy="985.87" r="0.28"/><circle class="cls-1" cx="796.51" cy="965.17" r="0.47"/><circle class="cls-1" cx="1143.25" cy="2783.61" r="0.86"/><circle class="cls-1" cx="1017.36" cy="2723.07" r="0.86"/><circle class="cls-1" cx="1133.82" cy="2774.77" r="0.63"/><circle class="cls-1" cx="1080.99" cy="2756.85" r="0.63"/><circle class="cls-1" cx="894.01" cy="2689.28" r="0.47"/><circle class="cls-1" cx="1109.1" cy="2767.05" r="0.47"/><circle class="cls-1" cx="1131.31" cy="2790.31" r="0.47"/><circle class="cls-1" cx="1163.91" cy="2761.93" r="0.28"/><circle class="cls-1" cx="1162.96" cy="2764.95" r="0.28"/><circle class="cls-1" cx="1128.97" cy="2763.89" r="0.28"/><circle class="cls-1" cx="1124.07" cy="2766.44" r="0.28"/><circle class="cls-1" cx="1159.26" cy="2776.73" r="0.28"/><circle class="cls-1" cx="1121.68" cy="2784.97" r="0.28"/><circle class="cls-1" cx="1120.84" cy="2787.64" r="0.28"/><circle class="cls-1" cx="1119.93" cy="2783.55" r="0.28"/><circle class="cls-1" cx="1052.9" cy="2785.39" r="0.28"/><circle class="cls-1" cx="1051.96" cy="2782.75" r="0.28"/><circle class="cls-1" cx="1055.15" cy="2785.46" r="0.28"/><circle class="cls-1" cx="1092.25" cy="2777.72" r="0.75"/><circle class="cls-1" cx="1047.22" cy="2761.88" r="0.75"/><circle class="cls-1" cx="1069.18" cy="2789.28" r="0.47"/><circle class="cls-1" cx="1104.2" cy="2787.98" r="0.47"/><circle class="cls-1" cx="1084.26" cy="2781.7" r="0.28"/><circle class="cls-1" cx="1083.31" cy="2784.72" r="0.28"/><circle class="cls-1" cx="1079.6" cy="2796.49" r="0.28"/><circle class="cls-1" cx="1108.89" cy="2779.28" r="0.28"/><circle class="cls-1" cx="1100.28" cy="2727.91" r="0.63"/><circle class="cls-1" cx="1061.72" cy="2722.37" r="0.47"/><circle class="cls-1" cx="1083.93" cy="2745.63" r="0.47"/><circle class="cls-1" cx="921.69" cy="2698.08" r="0.47"/><circle class="cls-1" cx="1081.59" cy="2719.21" r="0.28"/><circle class="cls-1" cx="1076.69" cy="2721.76" r="0.28"/><circle class="cls-1" cx="1038.26" cy="2731.97" r="0.28"/><circle class="cls-1" cx="1073.46" cy="2742.96" r="0.28"/><circle class="cls-1" cx="1027.42" cy="2745.85" r="0.28"/><circle class="cls-1" cx="1056.82" cy="2743.3" r="0.47"/><circle class="cls-1" cx="1061.51" cy="2734.6" r="0.28"/><circle class="cls-1" cx="1061.9" cy="2773.28" r="0.28"/><circle class="cls-1" cx="1062.81" cy="2754.8" r="0.28"/><circle class="cls-1" cx="1012.99" cy="2750.93" r="0.63"/><circle class="cls-1" cx="1015.93" cy="2739.71" r="0.47"/><circle class="cls-1" cx="1005.46" cy="2737.04" r="0.28"/><circle class="cls-1" cx="970.73" cy="2703.71" r="0.47"/><circle class="cls-1" cx="936.68" cy="2679.27" r="0.28"/><circle class="cls-1" cx="943.85" cy="2682.84" r="0.28"/><circle class="cls-1" cx="861.89" cy="2685.51" r="0.47"/><circle class="cls-1" cx="876.97" cy="2677.92" r="0.28"/><circle class="cls-1" cx="876.02" cy="2680.94" r="0.28"/><circle class="cls-1" cx="872.32" cy="2692.72" r="0.28"/><circle class="cls-1" cx="977.81" cy="2675.75" r="0.63"/><circle class="cls-1" cx="997.75" cy="2706.04" r="0.47"/><circle class="cls-1" cx="988.11" cy="2700.7" r="0.28"/><circle class="cls-1" cx="987.27" cy="2703.37" r="0.28"/><circle class="cls-1" cx="986.36" cy="2699.28" r="0.28"/><circle class="cls-1" cx="958.68" cy="2693.45" r="0.75"/><circle class="cls-1" cx="975.33" cy="2695.01" r="0.28"/><line class="cls-3" x1="791.79" y1="2317.91" x2="791.95" y2="2325.53"/><line class="cls-3" x1="793.51" y1="2319.63" x2="790.24" y2="2323.09"/><line class="cls-3" x1="793.6" y1="2322.99" x2="790.14" y2="2319.72"/><line class="cls-3" x1="794.71" y1="2321.27" x2="789.03" y2="2321.43"/><line class="cls-3" x1="318.86" y1="2622" x2="319.02" y2="2629.63"/><line class="cls-3" x1="320.58" y1="2623.72" x2="317.31" y2="2627.18"/><line class="cls-3" x1="320.67" y1="2627.09" x2="317.21" y2="2623.82"/><line class="cls-3" x1="321.79" y1="2625.36" x2="316.1" y2="2625.52"/><line class="cls-3" x1="410.11" y1="2992.69" x2="410.27" y2="3000.31"/><line class="cls-3" x1="411.83" y1="2994.41" x2="408.56" y2="2997.87"/><line class="cls-3" x1="411.92" y1="2997.77" x2="408.46" y2="2994.51"/><line class="cls-3" x1="413.04" y1="2996.05" x2="407.35" y2="2996.21"/><circle class="cls-1" cx="277.8" cy="2978.44" r="0.28"/><circle class="cls-1" cx="930.62" cy="2971.69" r="0.47"/><circle class="cls-1" cx="962" cy="3051.82" r="0.28"/><circle class="cls-1" cx="870.59" cy="2939.11" r="0.75"/><circle class="cls-1" cx="201.34" cy="2995.91" r="0.28"/><circle class="cls-1" cx="176.48" cy="3121.47" r="0.28"/><circle class="cls-1" cx="211.23" cy="3191.31" r="0.28"/><circle class="cls-1" cx="721.96" cy="2950.83" r="0.47"/><circle class="cls-1" cx="793.66" cy="2950.95" r="0.28"/><circle class="cls-1" cx="791.84" cy="2987.23" r="0.28"/><circle class="cls-1" cx="926.76" cy="3311.17" r="0.47"/><circle class="cls-1" cx="296.21" cy="3103.58" r="0.28"/><circle class="cls-1" cx="990.28" cy="2966.1" r="0.28"/><circle class="cls-1" cx="594.64" cy="3007.88" r="0.28"/><circle class="cls-1" cx="531.67" cy="3015" r="0.28"/><circle class="cls-1" cx="696.09" cy="3029.71" r="0.28"/><circle class="cls-1" cx="378.37" cy="3037.82" r="0.47"/><circle class="cls-1" cx="371.93" cy="3036.3" r="0.28"/><circle class="cls-1" cx="432.69" cy="3037.89" r="0.28"/><circle class="cls-1" cx="933.39" cy="3519.18" r="0.47"/><circle class="cls-1" cx="580.27" cy="3089.67" r="0.28"/><circle class="cls-1" cx="977.94" cy="3368.94" r="0.28"/><circle class="cls-1" cx="716.83" cy="3483.52" r="0.75"/><circle class="cls-1" cx="323.4" cy="3134.98" r="0.28"/><circle class="cls-1" cx="355.39" cy="3069.16" r="0.47"/><circle class="cls-1" cx="172.3" cy="3355.03" r="0.47"/><circle class="cls-1" cx="459.18" cy="3501.68" r="0.28"/><circle class="cls-1" cx="178.44" cy="3452.38" r="0.28"/><circle class="cls-1" cx="235.19" cy="3259.34" r="0.75"/><circle class="cls-1" cx="541.52" cy="3737.64" r="0.28"/><circle class="cls-1" cx="193.74" cy="3631.67" r="0.28"/><circle class="cls-1" cx="584.93" cy="3542.52" r="0.47"/><circle class="cls-1" cx="887.26" cy="3609.74" r="0.28"/><circle class="cls-1" cx="993.51" cy="3721.96" r="0.47"/><circle class="cls-1" cx="996.65" cy="3734" r="0.28"/><circle class="cls-1" cx="830.52" cy="3681.94" r="0.28"/><circle class="cls-1" cx="988.71" cy="3631.57" r="0.28"/><circle class="cls-1" cx="986.35" cy="3731.03" r="0.28"/><circle class="cls-1" cx="378.59" cy="3629.79" r="0.28"/><line class="cls-3" x1="943" y1="3461.7" x2="943.16" y2="3469.32"/><line class="cls-3" x1="944.72" y1="3463.42" x2="941.45" y2="3466.88"/><line class="cls-3" x1="944.81" y1="3466.78" x2="941.35" y2="3463.51"/><line class="cls-3" x1="945.93" y1="3465.06" x2="940.24" y2="3465.22"/></g></g></svg>