<svg width="508" height="98" viewBox="0 0 508 98" fill="none" xmlns="http://www.w3.org/2000/svg">
<path d="M507.016 74.5931H494.441V5.28665H507.016V74.5931Z" fill="white"/>
<path fill-rule="evenodd" clip-rule="evenodd" d="M467 74.5931H479.575V11.618C479.575 10.748 479.413 9.92641 479.091 9.15312C478.769 8.37983 478.317 7.70319 477.737 7.12322C477.157 6.54325 476.479 6.09217 475.706 5.76996C474.932 5.44775 474.11 5.28665 473.239 5.28665H444.898C439.9 5.28665 435.289 6.1405 431.066 7.84819C426.842 9.55588 423.182 11.9402 420.087 15.0012C416.992 18.0621 414.573 21.7191 412.832 25.9723C411.091 30.2254 410.221 34.8812 410.221 39.9399V74.5931H422.795V57.5841H422.789V45.018H450.466V57.5806H467V74.5931ZM467 17.8527V45.0146H422.795V39.9399C422.795 36.4278 423.279 33.4474 424.246 30.9987C425.246 28.5177 426.503 26.4556 428.019 24.8123C429.534 23.1691 431.195 21.8802 433 20.9458C434.806 20.0114 436.515 19.3187 438.127 18.8676C439.771 18.4165 441.206 18.1427 442.431 18.046C443.689 17.9171 444.511 17.8527 444.898 17.8527H467Z" fill="white"/>
<path d="M427.783 57.5841H450.788V45.018H427.783V57.5841Z" fill="url(#paint0_linear_41_18)"/>
<path d="M400.595 68.3584C400.595 69.2284 400.417 70.05 400.063 70.8233C399.74 71.5644 399.289 72.2249 398.709 72.8049C398.16 73.3526 397.499 73.7876 396.726 74.1098C395.984 74.432 395.194 74.5931 394.356 74.5931C393.485 74.5931 392.663 74.432 391.889 74.1098C391.148 73.7876 390.487 73.3526 389.906 72.8049C389.358 72.2249 388.923 71.5644 388.6 70.8233C388.278 70.05 388.117 69.2284 388.117 68.3584C388.117 67.5207 388.278 66.7313 388.6 65.9902C388.923 65.2169 389.358 64.5564 389.906 64.0087C390.487 63.4287 391.148 62.9776 391.889 62.6554C392.663 62.301 393.485 62.1237 394.356 62.1237C395.194 62.1237 395.984 62.301 396.726 62.6554C397.499 62.9776 398.16 63.4287 398.709 64.0087C399.289 64.5564 399.74 65.2169 400.063 65.9902C400.417 66.7313 400.595 67.5207 400.595 68.3584Z" fill="white"/>
<path d="M378.491 79.5556C378.491 81.7143 378.217 83.6476 377.669 85.3553C377.121 87.0952 376.395 88.6095 375.492 89.8984C374.59 91.2194 373.542 92.331 372.349 93.2332C371.156 94.1676 369.898 94.9248 368.576 95.5047C367.287 96.0847 365.965 96.5036 364.61 96.7613C363.288 97.0513 362.031 97.1963 360.838 97.1963H338.155V84.6303H360.838C362.547 84.6303 363.82 84.1953 364.659 83.3254C365.497 82.4554 365.916 81.1988 365.916 79.5556V39.8759C365.916 38.2327 365.497 36.9922 364.659 36.1545C363.82 35.2845 362.547 34.8495 360.838 34.8495H338.155C336.608 34.8495 335.382 35.3328 334.48 36.2995C333.577 37.2338 333.125 38.426 333.125 39.8759V56.8884C333.125 58.5316 333.561 59.7882 334.431 60.6582C335.302 61.5282 336.575 61.9631 338.252 61.9631L338.155 68.2686V74.5291C336.962 74.5291 335.705 74.4003 334.383 74.1425C333.061 73.8525 331.739 73.4175 330.417 72.8376C329.127 72.2576 327.886 71.5165 326.693 70.6143C325.5 69.68 324.452 68.5683 323.549 67.2795C322.647 65.9585 321.921 64.4441 321.373 62.7364C320.825 60.9965 320.551 59.0472 320.551 56.8884V39.8759C320.551 38.6838 320.68 37.4272 320.938 36.1061C321.228 34.7851 321.663 33.4802 322.244 32.1913C322.824 30.8703 323.565 29.6137 324.468 28.4215C325.403 27.2294 326.516 26.1822 327.805 25.28C329.127 24.3778 330.643 23.6529 332.352 23.1051C334.06 22.5574 335.995 22.2835 338.155 22.2835H360.838C362.031 22.2835 363.288 22.4285 364.61 22.7185C365.965 22.9763 367.287 23.3951 368.576 23.9751C369.898 24.5551 371.156 25.3122 372.349 26.2466C373.542 27.1488 374.59 28.2604 375.492 29.5815C376.395 30.8703 377.121 32.3685 377.669 34.0762C378.217 35.7839 378.491 37.7172 378.491 39.8759V79.5556Z" fill="white"/>
<path d="M360.838 61.9631H337.954C337.856 65.7691 337.856 68.5186 337.856 74.5292H360.838V61.9631Z" fill="url(#paint1_linear_41_18)"/>
<path d="M313.442 34.8495H285.149C283.44 34.8495 282.15 35.2845 281.28 36.1545C280.409 36.9922 279.974 38.2327 279.974 39.8759V74.5291H267.399V39.8759C267.399 37.7172 267.673 35.7839 268.221 34.0762C268.77 32.3685 269.495 30.8703 270.398 29.5815C271.333 28.2604 272.397 27.1488 273.59 26.2466C274.783 25.3122 276.024 24.5551 277.314 23.9751C278.636 23.3951 279.958 22.9763 281.28 22.7185C282.634 22.4285 283.891 22.2835 285.052 22.2835H313.442V34.8495Z" fill="white"/>
<path d="M257.055 56.8884C257.055 59.0472 256.781 60.9965 256.233 62.7364C255.685 64.4441 254.959 65.9585 254.057 67.2795C253.154 68.5683 252.106 69.68 250.913 70.6144C249.72 71.5165 248.463 72.2576 247.141 72.8376C245.851 73.4175 244.529 73.8525 243.175 74.1425C241.853 74.4003 240.595 74.5291 239.402 74.5291H216.72C214.979 74.5291 213.076 74.2231 211.013 73.6109C208.949 72.9987 207.031 71.9998 205.257 70.6144C203.516 69.1966 202.049 67.3762 200.856 65.153C199.695 62.8975 199.115 60.1427 199.115 56.8884V39.8759C199.115 36.6539 199.695 33.9312 200.856 31.708C202.049 29.4526 203.516 27.6321 205.257 26.2466C207.031 24.8289 208.949 23.814 211.013 23.2018C213.076 22.5896 214.979 22.2835 216.72 22.2835H239.402C242.627 22.2835 245.367 22.8635 247.624 24.0234C249.881 25.1834 251.703 26.6494 253.089 28.4215C254.476 30.1614 255.475 32.0624 256.088 34.1246C256.733 36.1867 257.055 38.1038 257.055 39.8759V56.8884ZM244.481 39.9726C244.481 38.2327 244.045 36.9439 243.175 36.1061C242.304 35.2684 241.047 34.8495 239.402 34.8495H216.816C215.14 34.8495 213.866 35.2845 212.996 36.1545C212.125 36.9922 211.69 38.2327 211.69 39.8759V56.8884C211.69 58.5316 212.125 59.7882 212.996 60.6582C213.866 61.5282 215.14 61.9631 216.816 61.9631H239.402C241.111 61.9631 242.385 61.5282 243.223 60.6582C244.061 59.7882 244.481 58.5316 244.481 56.8884V39.9726Z" fill="white"/>
<path d="M189.396 56.9797C189.396 58.1718 189.251 59.4284 188.961 60.7495C188.703 62.0705 188.284 63.3916 187.704 64.7126C187.123 66.0014 186.366 67.2419 185.431 68.4341C184.528 69.6262 183.415 70.6895 182.093 71.6239C180.804 72.5261 179.304 73.2511 177.596 73.7988C175.887 74.3466 173.952 74.6204 171.792 74.6204H149.109C147.916 74.6204 146.659 74.4915 145.337 74.2338C144.015 73.9438 142.693 73.5088 141.371 72.9288C140.081 72.3489 138.84 71.6078 137.647 70.7056C136.454 69.7712 135.39 68.6596 134.455 67.3708C133.552 66.0498 132.827 64.5354 132.278 62.8277C131.73 61.0878 131.456 59.1385 131.456 56.9797V0.287598H144.031V56.9797C144.031 58.5263 144.515 59.7668 145.482 60.7011C146.449 61.6033 147.658 62.0544 149.109 62.0544H171.792C173.372 62.0544 174.597 61.5872 175.468 60.6528C176.37 59.7184 176.822 58.494 176.822 56.9797V39.9672C176.822 38.3884 176.354 37.164 175.419 36.2941C174.484 35.3919 173.275 34.9408 171.792 34.9408V29.0259V22.3748C172.985 22.3748 174.242 22.5198 175.564 22.8098C176.886 23.0675 178.192 23.4864 179.482 24.0664C180.804 24.6463 182.061 25.4035 183.254 26.3379C184.447 27.2401 185.495 28.3517 186.398 29.6727C187.301 30.9616 188.026 32.4598 188.574 34.1675C189.122 35.8752 189.396 37.8084 189.396 39.9672V56.9797Z" fill="white"/>
<path d="M149.109 34.9408H172.055V22.3748H149.109V34.9408Z" fill="url(#paint2_linear_41_18)"/>
<path d="M119.775 79.6468C119.775 81.8056 119.501 83.7388 118.953 85.4465C118.405 87.1864 117.679 88.7008 116.776 89.9896C115.874 91.3107 114.826 92.4223 113.633 93.3245C112.44 94.2589 111.182 95.016 109.86 95.596C108.571 96.176 107.265 96.5948 105.943 96.8526C104.621 97.1426 103.363 97.2876 102.17 97.2876H79.4877V84.7216H102.17C103.847 84.7216 105.105 84.2866 105.943 83.4166C106.781 82.5467 107.2 81.2901 107.2 79.6468V22.3748H119.775V79.6468ZM79.4877 74.6204C77.6821 74.6204 75.7476 74.3143 73.684 73.7021C71.6527 73.0899 69.7504 72.0911 67.9771 70.7056C66.2037 69.2879 64.7367 67.4675 63.5759 65.2442C62.4152 62.9888 61.8348 60.2339 61.8348 56.9797V22.3748H74.4095V56.9797C74.4095 58.6229 74.8448 59.8795 75.7153 60.7495C76.5859 61.6194 77.8756 62.0544 79.5844 62.0544V68.5185L79.4877 74.6204Z" fill="white"/>
<path d="M79.1333 74.6204H102.17V62.0544H79.1333V74.6204Z" fill="url(#paint3_linear_41_18)"/>
<path d="M51.7168 74.5291H17.6201C15.879 74.5291 13.9767 74.2231 11.9132 73.6109C9.84964 72.9987 7.9312 71.9998 6.15786 70.6144C4.41675 69.1966 2.94971 67.3762 1.75673 65.153C0.595993 62.8975 0.015625 60.1427 0.015625 56.8884V39.8759C0.015625 38.6838 0.144596 37.4272 0.402537 36.1061C0.692721 34.7851 1.128 33.4802 1.70837 32.1913C2.28873 30.8703 3.03032 29.6137 3.93311 28.4215C4.86815 27.2294 5.98052 26.1822 7.27023 25.28C8.59218 24.3778 10.1076 23.6529 11.8164 23.1051C13.5253 22.5574 15.4599 22.2835 17.6201 22.2835H51.7168V34.8495H17.6201C15.9758 34.8495 14.7183 35.2684 13.8477 36.1061C13.0094 36.9439 12.5903 38.2327 12.5903 39.9726V56.8884C12.5903 58.5316 13.0255 59.7882 13.8961 60.6582C14.7667 61.5282 16.0402 61.9631 17.7169 61.9631H51.7168V74.5291Z" fill="white"/>
<defs>
<linearGradient id="paint0_linear_41_18" x1="450.788" y1="51.301" x2="427.783" y2="51.301" gradientUnits="userSpaceOnUse">
<stop stop-color="white"/>
<stop offset="0.0666667" stop-color="white" stop-opacity="0.991353"/>
<stop offset="0.133333" stop-color="white" stop-opacity="0.96449"/>
<stop offset="0.2" stop-color="white" stop-opacity="0.91834"/>
<stop offset="0.266667" stop-color="white" stop-opacity="0.852589"/>
<stop offset="0.333333" stop-color="white" stop-opacity="0.768225"/>
<stop offset="0.4" stop-color="white" stop-opacity="0.668116"/>
<stop offset="0.466667" stop-color="white" stop-opacity="0.557309"/>
<stop offset="0.533333" stop-color="white" stop-opacity="0.442691"/>
<stop offset="0.6" stop-color="white" stop-opacity="0.331884"/>
<stop offset="0.666667" stop-color="white" stop-opacity="0.231775"/>
<stop offset="0.733333" stop-color="white" stop-opacity="0.147411"/>
<stop offset="0.8" stop-color="white" stop-opacity="0.0816599"/>
<stop offset="0.866667" stop-color="white" stop-opacity="0.03551"/>
<stop offset="0.933333" stop-color="white" stop-opacity="0.01"/>
<stop offset="1" stop-color="white" stop-opacity="0"/>
</linearGradient>
<linearGradient id="paint1_linear_41_18" x1="337.856" y1="68.2461" x2="360.838" y2="68.2461" gradientUnits="userSpaceOnUse">
<stop stop-color="white"/>
<stop offset="0.0666667" stop-color="white" stop-opacity="0.991353"/>
<stop offset="0.133333" stop-color="white" stop-opacity="0.96449"/>
<stop offset="0.2" stop-color="white" stop-opacity="0.91834"/>
<stop offset="0.266667" stop-color="white" stop-opacity="0.852589"/>
<stop offset="0.333333" stop-color="white" stop-opacity="0.768225"/>
<stop offset="0.4" stop-color="white" stop-opacity="0.668116"/>
<stop offset="0.466667" stop-color="white" stop-opacity="0.557309"/>
<stop offset="0.533333" stop-color="white" stop-opacity="0.442691"/>
<stop offset="0.6" stop-color="white" stop-opacity="0.331884"/>
<stop offset="0.666667" stop-color="white" stop-opacity="0.231775"/>
<stop offset="0.733333" stop-color="white" stop-opacity="0.147411"/>
<stop offset="0.8" stop-color="white" stop-opacity="0.0816599"/>
<stop offset="0.866667" stop-color="white" stop-opacity="0.03551"/>
<stop offset="0.933333" stop-color="white" stop-opacity="0.01"/>
<stop offset="1" stop-color="white" stop-opacity="0"/>
</linearGradient>
<linearGradient id="paint2_linear_41_18" x1="172.055" y1="28.6578" x2="149.109" y2="28.6578" gradientUnits="userSpaceOnUse">
<stop stop-color="white"/>
<stop offset="0.0666667" stop-color="white" stop-opacity="0.991353"/>
<stop offset="0.133333" stop-color="white" stop-opacity="0.96449"/>
<stop offset="0.2" stop-color="white" stop-opacity="0.91834"/>
<stop offset="0.266667" stop-color="white" stop-opacity="0.852589"/>
<stop offset="0.333333" stop-color="white" stop-opacity="0.768225"/>
<stop offset="0.4" stop-color="white" stop-opacity="0.668116"/>
<stop offset="0.466667" stop-color="white" stop-opacity="0.557309"/>
<stop offset="0.533333" stop-color="white" stop-opacity="0.442691"/>
<stop offset="0.6" stop-color="white" stop-opacity="0.331884"/>
<stop offset="0.666667" stop-color="white" stop-opacity="0.231775"/>
<stop offset="0.733333" stop-color="white" stop-opacity="0.147411"/>
<stop offset="0.8" stop-color="white" stop-opacity="0.0816599"/>
<stop offset="0.866667" stop-color="white" stop-opacity="0.03551"/>
<stop offset="0.933333" stop-color="white" stop-opacity="0.01"/>
<stop offset="1" stop-color="white" stop-opacity="0"/>
</linearGradient>
<linearGradient id="paint3_linear_41_18" x1="79.1333" y1="68.3374" x2="102.17" y2="68.3374" gradientUnits="userSpaceOnUse">
<stop stop-color="white"/>
<stop offset="0.0666667" stop-color="white" stop-opacity="0.991353"/>
<stop offset="0.133333" stop-color="white" stop-opacity="0.96449"/>
<stop offset="0.2" stop-color="white" stop-opacity="0.91834"/>
<stop offset="0.266667" stop-color="white" stop-opacity="0.852589"/>
<stop offset="0.333333" stop-color="white" stop-opacity="0.768225"/>
<stop offset="0.4" stop-color="white" stop-opacity="0.668116"/>
<stop offset="0.466667" stop-color="white" stop-opacity="0.557309"/>
<stop offset="0.533333" stop-color="white" stop-opacity="0.442691"/>
<stop offset="0.6" stop-color="white" stop-opacity="0.331884"/>
<stop offset="0.666667" stop-color="white" stop-opacity="0.231775"/>
<stop offset="0.733333" stop-color="white" stop-opacity="0.147411"/>
<stop offset="0.8" stop-color="white" stop-opacity="0.0816599"/>
<stop offset="0.866667" stop-color="white" stop-opacity="0.03551"/>
<stop offset="0.933333" stop-color="white" stop-opacity="0.01"/>
<stop offset="1" stop-color="white" stop-opacity="0"/>
</linearGradient>
</defs>
</svg>
