<svg xmlns="http://www.w3.org/2000/svg" viewBox="0 0 886.14 3875.49"><defs><style>.cls-1{fill:#fff;}.cls-2,.cls-3{fill:none;stroke:#fff;stroke-width:0.5px;}.cls-2{stroke-miterlimit:10;}.cls-3{stroke-linecap:round;stroke-linejoin:round;}</style></defs><title>Sparse-Stars_1</title><g id="Layer_2" data-name="Layer 2"><g id="Sparse_Stars" data-name="Sparse Stars"><circle class="cls-1" cx="213.64" cy="352.71" r="0.47"/><circle class="cls-1" cx="48.25" cy="261.92" r="0.47"/><circle class="cls-1" cx="46.97" cy="272.42" r="0.28"/><circle class="cls-1" cx="450.94" cy="846.67" r="0.28"/><circle class="cls-1" cx="726.45" cy="1044.8" r="0.47"/><circle class="cls-1" cx="453.34" cy="831.77" r="0.28"/><circle class="cls-1" cx="497.89" cy="814.4" r="0.28"/><circle class="cls-1" cx="480.81" cy="827.59" r="0.28"/><line class="cls-2" x1="674.17" y1="1040.92" x2="671.26" y2="1043.82"/><line class="cls-2" x1="674.17" y1="1043.82" x2="671.26" y2="1040.92"/><circle class="cls-1" cx="647.57" cy="961.01" r="0.28"/><circle class="cls-1" cx="663.99" cy="958.31" r="0.47"/><circle class="cls-1" cx="660.59" cy="967.59" r="0.28"/><circle class="cls-1" cx="723.86" cy="1008.43" r="0.28"/><circle class="cls-1" cx="716.25" cy="1005.91" r="0.28"/><circle class="cls-1" cx="683.64" cy="1017.75" r="0.63"/><circle class="cls-1" cx="652.13" cy="1016.36" r="0.63"/><circle class="cls-1" cx="575.85" cy="1624.9" r="0.28"/><circle class="cls-1" cx="545.46" cy="1626.17" r="0.28"/><circle class="cls-1" cx="578.25" cy="1609.99" r="0.28"/><circle class="cls-1" cx="424.16" cy="1408.4" r="0.47"/><circle class="cls-1" cx="56.77" cy="3875.21" r="0.28"/><circle class="cls-1" cx="569.32" cy="3815.13" r="0.28"/><circle class="cls-1" cx="561.85" cy="3836.08" r="0.28"/><circle class="cls-1" cx="824.25" cy="3452.63" r="0.28"/><circle class="cls-1" cx="78.04" cy="3318.3" r="0.63"/><circle class="cls-1" cx="77.09" cy="3335.93" r="0.28"/><circle class="cls-1" cx="73.36" cy="3331.85" r="0.28"/><circle class="cls-1" cx="67.72" cy="3336.78" r="0.47"/><circle class="cls-1" cx="828" cy="3457.82" r="0.28"/><circle class="cls-1" cx="236.87" cy="3700.84" r="0.47"/><circle class="cls-1" cx="230.38" cy="3690.22" r="0.28"/><circle class="cls-1" cx="534.07" cy="3629.1" r="0.47"/><circle class="cls-1" cx="527.64" cy="3627.59" r="0.28"/><circle class="cls-1" cx="561.06" cy="3602.44" r="0.28"/><circle class="cls-1" cx="172.69" cy="3689.3" r="0.75"/><circle class="cls-1" cx="656.61" cy="357.93" r="0.47"/><circle class="cls-1" cx="614.96" cy="351.79" r="0.28"/><circle class="cls-1" cx="451.25" cy="512.19" r="0.75"/><circle class="cls-1" cx="481.19" cy="478.58" r="0.47"/><circle class="cls-1" cx="494.02" cy="509.58" r="0.28"/><circle class="cls-1" cx="480.97" cy="530.57" r="0.28"/><circle class="cls-1" cx="223.69" cy="453.92" r="0.63"/><circle class="cls-1" cx="473.53" cy="475.42" r="0.47"/><circle class="cls-1" cx="299.15" cy="254.88" r="0.28"/><circle class="cls-1" cx="329.61" cy="290.34" r="0.47"/><circle class="cls-1" cx="330.19" cy="262.57" r="0.28"/><circle class="cls-1" cx="355.95" cy="240.48" r="0.75"/><circle class="cls-1" cx="177.35" cy="0.47" r="0.47"/><circle class="cls-1" cx="175.88" cy="17.29" r="0.28"/><circle class="cls-1" cx="173.82" cy="14.9" r="0.28"/><circle class="cls-1" cx="165.74" cy="5.56" r="0.28"/><circle class="cls-1" cx="669.42" cy="109.45" r="0.28"/><circle class="cls-1" cx="634.39" cy="89.97" r="0.75"/><circle class="cls-1" cx="645.73" cy="90.37" r="0.28"/><circle class="cls-1" cx="654.73" cy="112.91" r="0.28"/><circle class="cls-1" cx="186.26" cy="476.86" r="0.28"/><circle class="cls-1" cx="282.32" cy="280.47" r="0.28"/><circle class="cls-1" cx="273.69" cy="266.15" r="0.28"/><circle class="cls-1" cx="653.32" cy="343.27" r="0.28"/><circle class="cls-1" cx="632" cy="376.45" r="0.28"/><path class="cls-1" d="M246.83,451.51a.28.28,0,0,1-.39,0,.27.27,0,0,1,0-.39"/><circle class="cls-1" cx="107.97" cy="550.01" r="0.75"/><circle class="cls-1" cx="61.73" cy="555.16" r="0.28"/><circle class="cls-1" cx="216.2" cy="430.11" r="0.28"/><circle class="cls-1" cx="213.56" cy="431.81" r="0.28"/><circle class="cls-1" cx="601.63" cy="333.63" r="0.47"/><circle class="cls-1" cx="379.32" cy="175.04" r="0.28"/><circle class="cls-1" cx="349.29" cy="135.86" r="0.28"/><circle class="cls-1" cx="362.44" cy="129.83" r="0.28"/><circle class="cls-1" cx="340.2" cy="163.31" r="0.28"/><circle class="cls-1" cx="755.27" cy="363.75" r="0.86"/><circle class="cls-1" cx="741.54" cy="383.06" r="0.28"/><circle class="cls-1" cx="767.32" cy="576.13" r="0.28"/><circle class="cls-1" cx="679.08" cy="590.63" r="0.75"/><circle class="cls-1" cx="657.02" cy="564.95" r="0.47"/><circle class="cls-1" cx="105.22" cy="659.24" r="0.28"/><circle class="cls-1" cx="134.59" cy="666.62" r="0.47"/><circle class="cls-1" cx="748.15" cy="731.97" r="0.47"/><circle class="cls-1" cx="751.29" cy="744.02" r="0.28"/><circle class="cls-1" cx="100.88" cy="672.88" r="0.28"/><circle class="cls-1" cx="727.52" cy="771.55" r="0.28"/><circle class="cls-1" cx="740.99" cy="741.05" r="0.28"/><circle class="cls-1" cx="315.69" cy="816.5" r="0.28"/><circle class="cls-1" cx="311.65" cy="819.04" r="0.28"/><circle class="cls-1" cx="292.39" cy="813.42" r="0.75"/><circle class="cls-1" cx="623.34" cy="889.4" r="0.63"/><circle class="cls-1" cx="622.39" cy="907.02" r="0.28"/><circle class="cls-1" cx="618.67" cy="902.95" r="0.28"/><circle class="cls-1" cx="669.54" cy="906.09" r="0.28"/><circle class="cls-1" cx="659.69" cy="867.42" r="0.75"/><circle class="cls-1" cx="683.74" cy="863.83" r="0.47"/><line class="cls-2" x1="116.96" y1="693.31" x2="114.05" y2="696.21"/><line class="cls-2" x1="116.96" y1="696.21" x2="114.05" y2="693.31"/><circle class="cls-1" cx="533.47" cy="235.33" r="0.86"/><circle class="cls-1" cx="423.52" cy="280.53" r="0.28"/><circle class="cls-1" cx="552.87" cy="220.34" r="0.75"/><circle class="cls-1" cx="94.9" cy="381.04" r="0.47"/><circle class="cls-1" cx="95.52" cy="362.92" r="0.28"/><circle class="cls-1" cx="273.11" cy="190.35" r="0.63"/><circle class="cls-1" cx="215.91" cy="145.26" r="0.47"/><circle class="cls-1" cx="192.27" cy="155.91" r="0.28"/><circle class="cls-1" cx="735.23" cy="198.09" r="0.28"/><line class="cls-2" x1="814.89" y1="217.25" x2="811.99" y2="220.15"/><line class="cls-2" x1="814.89" y1="220.15" x2="811.99" y2="217.25"/><circle class="cls-1" cx="461.07" cy="347.57" r="0.63"/><circle class="cls-1" cx="474.92" cy="323.54" r="0.28"/><circle class="cls-1" cx="482.01" cy="354.2" r="0.28"/><circle class="cls-1" cx="573.89" cy="266.57" r="0.28"/><circle class="cls-1" cx="576.26" cy="265.08" r="0.28"/><circle class="cls-1" cx="574.32" cy="268.79" r="0.28"/><circle class="cls-1" cx="600.47" cy="289.9" r="0.28"/><circle class="cls-1" cx="582.71" cy="256.27" r="0.47"/><circle class="cls-1" cx="482.88" cy="144" r="0.28"/><circle class="cls-1" cx="527.06" cy="134.88" r="0.47"/><circle class="cls-1" cx="396.26" cy="66.16" r="0.28"/><circle class="cls-1" cx="393.12" cy="62.56" r="0.28"/><circle class="cls-1" cx="422.76" cy="33.3" r="0.75"/><circle class="cls-1" cx="381.59" cy="50.22" r="0.28"/><circle class="cls-1" cx="263.7" cy="131.56" r="0.75"/><circle class="cls-1" cx="275.05" cy="131.97" r="0.28"/><circle class="cls-1" cx="553.71" cy="339.98" r="0.75"/><circle class="cls-1" cx="527.62" cy="335.05" r="0.47"/><circle class="cls-1" cx="544.08" cy="313.03" r="0.28"/><circle class="cls-1" cx="885.67" cy="212.18" r="0.47"/><circle class="cls-1" cx="847.48" cy="229.46" r="0.28"/><circle class="cls-1" cx="854.16" cy="225.03" r="0.28"/><circle class="cls-1" cx="870.76" cy="217.48" r="0.75"/><circle class="cls-1" cx="880.43" cy="203.84" r="0.28"/><circle class="cls-1" cx="271.88" cy="379.78" r="0.86"/><circle class="cls-1" cx="302.94" cy="344.38" r="0.28"/><circle class="cls-1" cx="311.38" cy="320.44" r="0.28"/><circle class="cls-1" cx="284.45" cy="312.77" r="0.28"/><circle class="cls-1" cx="251.48" cy="310.6" r="0.28"/><circle class="cls-1" cx="348.31" cy="428.85" r="0.28"/><circle class="cls-1" cx="379.3" cy="394.51" r="0.28"/><circle class="cls-1" cx="340.38" cy="442.67" r="0.28"/><circle class="cls-1" cx="376.43" cy="417.89" r="0.47"/><circle class="cls-1" cx="405.2" cy="415.49" r="0.28"/><circle class="cls-1" cx="1.55" cy="149.42" r="0.63"/><circle class="cls-1" cx="9.55" cy="157.82" r="0.47"/><circle class="cls-1" cx="68.33" cy="141.66" r="0.75"/><circle class="cls-1" cx="65.11" cy="167.26" r="0.47"/><circle class="cls-1" cx="83.5" cy="137.43" r="0.47"/><circle class="cls-1" cx="67.19" cy="150.51" r="0.28"/><circle class="cls-1" cx="69.17" cy="152.98" r="0.28"/><circle class="cls-1" cx="76.9" cy="162.61" r="0.28"/><circle class="cls-1" cx="0.28" cy="161.08" r="0.28"/><circle class="cls-1" cx="22.89" cy="236.2" r="0.63"/><circle class="cls-1" cx="43.76" cy="233.63" r="0.47"/><circle class="cls-1" cx="34.13" cy="224.73" r="0.28"/><circle class="cls-1" cx="157.27" cy="25.82" r="0.47"/><circle class="cls-1" cx="66.53" cy="81.23" r="0.47"/><circle class="cls-1" cx="53.61" cy="80.28" r="0.28"/><circle class="cls-1" cx="163.44" cy="33.33" r="0.47"/><circle class="cls-1" cx="124.76" cy="104.23" r="0.63"/><circle class="cls-1" cx="95.07" cy="73.32" r="0.28"/><circle class="cls-1" cx="97.05" cy="75.79" r="0.28"/><circle class="cls-1" cx="593.03" cy="653.55" r="0.28"/><circle class="cls-1" cx="319.28" cy="669.66" r="0.47"/><circle class="cls-1" cx="809.85" cy="790.41" r="0.75"/><circle class="cls-1" cx="363.23" cy="723.63" r="0.47"/><circle class="cls-1" cx="107.26" cy="785.51" r="0.28"/><circle class="cls-1" cx="134.73" cy="874.93" r="0.75"/><circle class="cls-1" cx="364.36" cy="971.26" r="0.47"/><circle class="cls-1" cx="417.11" cy="1004.16" r="0.47"/><circle class="cls-1" cx="652.4" cy="951.67" r="0.28"/><circle class="cls-1" cx="512.27" cy="989.41" r="0.47"/><circle class="cls-1" cx="505.84" cy="987.89" r="0.28"/><circle class="cls-1" cx="504.57" cy="934.45" r="0.86"/><circle class="cls-1" cx="515.16" cy="941.87" r="0.63"/><circle class="cls-1" cx="515.44" cy="926.14" r="0.47"/><circle class="cls-1" cx="555" cy="983.49" r="0.63"/><circle class="cls-1" cx="593.97" cy="983.51" r="0.47"/><circle class="cls-1" cx="574.74" cy="989.46" r="0.28"/><circle class="cls-1" cx="579.23" cy="986.24" r="0.28"/><circle class="cls-1" cx="638.15" cy="948.32" r="0.63"/><circle class="cls-1" cx="656.44" cy="947.78" r="0.28"/><circle class="cls-1" cx="775.81" cy="1006.37" r="0.75"/><circle class="cls-1" cx="783.15" cy="1001.29" r="0.28"/><circle class="cls-1" cx="783.66" cy="998.17" r="0.28"/><circle class="cls-1" cx="183.33" cy="928.48" r="0.75"/><circle class="cls-1" cx="191.93" cy="935.87" r="0.28"/><circle class="cls-1" cx="859.61" cy="894.07" r="0.28"/><circle class="cls-1" cx="789.36" cy="972.41" r="0.47"/><circle class="cls-1" cx="855.1" cy="900.47" r="0.28"/><circle class="cls-1" cx="525.62" cy="1121.48" r="0.47"/><circle class="cls-1" cx="519.19" cy="1119.96" r="0.28"/><circle class="cls-1" cx="100.88" cy="1074.66" r="0.28"/><circle class="cls-1" cx="346.4" cy="1247.04" r="0.28"/><circle class="cls-1" cx="320.75" cy="1262" r="0.47"/><circle class="cls-1" cx="281.45" cy="1239.89" r="0.28"/><circle class="cls-1" cx="295.04" cy="1254.79" r="0.28"/><circle class="cls-1" cx="686.68" cy="989.07" r="0.47"/><circle class="cls-1" cx="797" cy="991.65" r="0.47"/><circle class="cls-1" cx="785.66" cy="985.99" r="0.28"/><circle class="cls-1" cx="669.9" cy="994.52" r="0.28"/><circle class="cls-1" cx="670.35" cy="991.76" r="0.28"/><circle class="cls-1" cx="671.84" cy="995.67" r="0.28"/><circle class="cls-1" cx="700.07" cy="997.52" r="0.75"/><circle class="cls-1" cx="683.37" cy="998.34" r="0.28"/><line class="cls-3" x1="55.54" y1="1051.83" x2="55.7" y2="1059.45"/><line class="cls-3" x1="57.25" y1="1053.54" x2="53.98" y2="1057"/><line class="cls-3" x1="57.35" y1="1056.91" x2="53.89" y2="1053.64"/><line class="cls-3" x1="58.46" y1="1055.18" x2="52.78" y2="1055.34"/><circle class="cls-1" cx="525.62" cy="719.7" r="0.47"/><circle class="cls-1" cx="519.19" cy="718.18" r="0.28"/><circle class="cls-1" cx="577.09" cy="918.33" r="0.47"/><circle class="cls-1" cx="282.83" cy="1126.06" r="0.28"/><circle class="cls-1" cx="73.27" cy="1303.87" r="0.28"/><circle class="cls-1" cx="252.09" cy="1145.55" r="0.47"/><circle class="cls-1" cx="809.85" cy="1192.19" r="0.75"/><circle class="cls-1" cx="530.65" cy="1291.64" r="0.28"/><circle class="cls-1" cx="623.34" cy="1291.18" r="0.63"/><circle class="cls-1" cx="525.08" cy="1263.82" r="0.28"/><circle class="cls-1" cx="173.33" cy="1320.26" r="0.75"/><circle class="cls-1" cx="135.29" cy="1429.85" r="0.47"/><circle class="cls-1" cx="122.84" cy="1592.57" r="0.28"/><circle class="cls-1" cx="118.8" cy="1595.11" r="0.28"/><circle class="cls-1" cx="99.53" cy="1589.49" r="0.75"/><circle class="cls-1" cx="154.95" cy="1506.08" r="0.28"/><circle class="cls-1" cx="745.99" cy="1412.68" r="0.28"/><circle class="cls-1" cx="750.03" cy="1410.13" r="0.28"/><circle class="cls-1" cx="769.29" cy="1415.75" r="0.75"/><circle class="cls-1" cx="796.85" cy="1404.43" r="0.28"/><circle class="cls-1" cx="358.68" cy="1350.4" r="0.47"/><circle class="cls-1" cx="732.29" cy="1624.31" r="0.28"/><circle class="cls-1" cx="808.75" cy="1606.83" r="0.28"/><circle class="cls-1" cx="332.16" cy="1371.91" r="0.75"/><circle class="cls-1" cx="323.37" cy="1379.08" r="0.28"/><circle class="cls-1" cx="733.54" cy="1575.4" r="0.47"/><circle class="cls-1" cx="19.81" cy="1636.65" r="0.28"/><circle class="cls-1" cx="120.68" cy="1871.49" r="0.47"/><circle class="cls-1" cx="117.54" cy="1859.45" r="0.28"/><circle class="cls-1" cx="787.46" cy="1863.5" r="0.28"/><circle class="cls-1" cx="761.56" cy="1817.95" r="0.28"/><circle class="cls-1" cx="781.67" cy="1859.3" r="0.75"/><circle class="cls-1" cx="58.97" cy="1813.06" r="0.75"/><circle class="cls-1" cx="141.31" cy="1831.92" r="0.28"/><circle class="cls-1" cx="127.83" cy="1862.42" r="0.28"/><circle class="cls-1" cx="786.26" cy="1793.82" r="0.28"/><circle class="cls-1" cx="646.16" cy="1730.03" r="0.28"/><circle class="cls-1" cx="587.38" cy="1765.36" r="0.28"/><circle class="cls-1" cx="573.78" cy="1750.46" r="0.28"/><circle class="cls-1" cx="356.56" cy="1614.06" r="0.47"/><circle class="cls-1" cx="362.99" cy="1615.58" r="0.28"/><line class="cls-3" x1="324.94" y1="1793.84" x2="325.1" y2="1801.46"/><line class="cls-3" x1="326.66" y1="1795.56" x2="323.39" y2="1799.02"/><line class="cls-3" x1="326.75" y1="1798.92" x2="323.29" y2="1795.65"/><line class="cls-3" x1="327.86" y1="1797.2" x2="322.18" y2="1797.36"/><circle class="cls-1" cx="551.76" cy="1900.8" r="0.28"/><circle class="cls-1" cx="555.8" cy="1898.25" r="0.28"/><circle class="cls-1" cx="586" cy="1879.19" r="0.28"/><circle class="cls-1" cx="581.64" cy="1903.79" r="0.28"/><circle class="cls-1" cx="139.49" cy="1663.64" r="0.75"/><circle class="cls-1" cx="338.17" cy="1713.61" r="0.28"/><circle class="cls-1" cx="762.6" cy="2051.21" r="0.28"/><circle class="cls-1" cx="844.66" cy="2078.78" r="0.28"/><circle class="cls-1" cx="284.14" cy="2051.47" r="0.28"/><circle class="cls-1" cx="135.02" cy="2201.61" r="0.75"/><circle class="cls-1" cx="74.59" cy="2229.28" r="0.28"/><circle class="cls-1" cx="811.17" cy="2117.6" r="0.75"/><circle class="cls-1" cx="728.84" cy="2098.74" r="0.28"/><circle class="cls-1" cx="253.41" cy="2070.96" r="0.47"/><circle class="cls-1" cx="624.66" cy="2216.59" r="0.63"/><circle class="cls-1" cx="623.71" cy="2234.21" r="0.28"/><circle class="cls-1" cx="619.98" cy="2230.14" r="0.28"/><circle class="cls-1" cx="614.34" cy="2235.07" r="0.47"/><circle class="cls-1" cx="359.99" cy="2275.81" r="0.47"/><circle class="cls-1" cx="189.9" cy="1906.59" r="0.28"/><line class="cls-2" x1="362.29" y1="1978.76" x2="359.39" y2="1981.66"/><line class="cls-2" x1="362.29" y1="1981.66" x2="359.39" y2="1978.76"/><circle class="cls-1" cx="526.94" cy="2046.89" r="0.47"/><circle class="cls-1" cx="520.5" cy="2045.37" r="0.28"/><circle class="cls-1" cx="137.86" cy="2306.35" r="0.28"/><circle class="cls-1" cx="84.89" cy="2377.57" r="0.47"/><circle class="cls-1" cx="700.93" cy="2431.51" r="0.75"/><circle class="cls-1" cx="692.32" cy="2424.11" r="0.28"/><circle class="cls-1" cx="282.07" cy="2207.41" r="0.47"/><circle class="cls-1" cx="700.81" cy="2150.76" r="0.28"/><circle class="cls-1" cx="174.64" cy="2245.67" r="0.75"/><circle class="cls-1" cx="183.25" cy="2253.06" r="0.28"/><circle class="cls-1" cx="739.46" cy="1989.16" r="0.47"/><circle class="cls-1" cx="300.6" cy="1966.85" r="0.47"/><circle class="cls-1" cx="732.31" cy="1998.24" r="0.28"/><circle class="cls-1" cx="82.68" cy="2067.16" r="0.28"/><circle class="cls-1" cx="88.47" cy="2071.36" r="0.75"/><circle class="cls-1" cx="124.35" cy="2661.23" r="0.28"/><circle class="cls-1" cx="737.71" cy="2370.83" r="0.28"/><circle class="cls-1" cx="64.4" cy="2559.58" r="0.75"/><circle class="cls-1" cx="250.91" cy="2460.59" r="0.63"/><circle class="cls-1" cx="251.86" cy="2442.96" r="0.28"/><circle class="cls-1" cx="255.58" cy="2447.04" r="0.28"/><circle class="cls-1" cx="261.23" cy="2442.11" r="0.47"/><circle class="cls-1" cx="214.56" cy="2482.56" r="0.75"/><circle class="cls-1" cx="142.8" cy="2676.12" r="0.63"/><circle class="cls-1" cx="134.04" cy="2658.97" r="0.28"/><line class="cls-2" x1="705.94" y1="2618.17" x2="703.04" y2="2621.07"/><line class="cls-2" x1="705.94" y1="2621.07" x2="703.04" y2="2618.17"/><circle class="cls-1" cx="727.77" cy="2371.99" r="0.47"/><circle class="cls-1" cx="76.1" cy="2738.01" r="0.47"/><circle class="cls-1" cx="792.89" cy="2610.02" r="0.28"/><circle class="cls-1" cx="787.09" cy="2605.82" r="0.75"/><circle class="cls-1" cx="83.26" cy="2728.94" r="0.28"/><circle class="cls-1" cx="461.19" cy="2589.14" r="0.94"/><circle class="cls-1" cx="82.68" cy="2846.36" r="0.28"/><circle class="cls-1" cx="88.47" cy="2850.56" r="0.75"/><circle class="cls-1" cx="137.86" cy="3085.56" r="0.28"/><circle class="cls-1" cx="347.72" cy="2951.65" r="0.28"/><circle class="cls-1" cx="575.12" cy="2937.87" r="0.47"/><circle class="cls-1" cx="851.92" cy="2762.81" r="0.47"/><circle class="cls-1" cx="856.61" cy="2754.11" r="0.28"/><circle class="cls-1" cx="857.91" cy="2774.3" r="0.28"/><circle class="cls-1" cx="748.06" cy="2699.37" r="0.75"/><circle class="cls-1" cx="760.26" cy="2705.51" r="0.47"/><circle class="cls-1" cx="764.95" cy="2696.81" r="0.28"/><circle class="cls-1" cx="871.9" cy="2707.02" r="0.63"/><circle class="cls-1" cx="363.03" cy="2973.32" r="0.47"/><circle class="cls-1" cx="111.9" cy="3087.52" r="0.28"/><circle class="cls-1" cx="139.64" cy="3052.77" r="0.47"/><circle class="cls-1" cx="165.88" cy="3100.94" r="0.28"/><circle class="cls-1" cx="58.61" cy="2709.07" r="0.28"/><circle class="cls-1" cx="448.46" cy="2794.7" r="0.28"/><circle class="cls-1" cx="730.65" cy="3046.23" r="0.75"/><circle class="cls-1" cx="174.64" cy="3024.88" r="0.75"/><circle class="cls-1" cx="730.8" cy="3069.5" r="0.47"/><circle class="cls-1" cx="421.46" cy="3028.86" r="0.47"/><circle class="cls-1" cx="137.72" cy="3226.73" r="0.28"/><circle class="cls-1" cx="101.89" cy="3205.42" r="0.75"/><circle class="cls-1" cx="828.61" cy="3263.21" r="0.28"/><circle class="cls-1" cx="783.53" cy="3243.11" r="0.75"/><circle class="cls-1" cx="824.52" cy="3242.2" r="0.28"/><circle class="cls-1" cx="843.54" cy="3265.43" r="0.28"/><circle class="cls-1" cx="775.53" cy="3252.63" r="0.47"/><circle class="cls-1" cx="463.99" cy="3075.52" r="0.47"/><circle class="cls-1" cx="467.13" cy="3087.57" r="0.28"/><circle class="cls-1" cx="525.7" cy="3133.96" r="0.75"/><circle class="cls-1" cx="456.84" cy="3084.6" r="0.28"/><circle class="cls-1" cx="181.93" cy="1327.65" r="0.28"/><circle class="cls-1" cx="9.21" cy="1709.39" r="0.28"/><circle class="cls-1" cx="57.69" cy="1676.8" r="0.28"/><circle class="cls-1" cx="13.73" cy="1703" r="0.28"/><circle class="cls-1" cx="246.43" cy="1696.44" r="0.28"/><circle class="cls-1" cx="250.16" cy="1700.52" r="0.28"/><circle class="cls-1" cx="255.81" cy="1695.59" r="0.47"/><circle class="cls-1" cx="195.2" cy="1784.13" r="0.28"/><circle class="cls-1" cx="209.14" cy="1736.05" r="0.75"/><circle class="cls-1" cx="169.33" cy="1779.89" r="0.28"/><circle class="cls-1" cx="539.23" cy="2452.32" r="0.28"/><circle class="cls-1" cx="221.85" cy="2398.32" r="0.28"/><circle class="cls-1" cx="204.71" cy="2443.9" r="0.28"/><circle class="cls-1" cx="515.57" cy="2401.37" r="0.47"/><circle class="cls-1" cx="476.94" cy="2442.45" r="0.47"/><circle class="cls-1" cx="712.73" cy="2273.75" r="0.28"/><circle class="cls-1" cx="361.98" cy="2360.58" r="0.47"/><circle class="cls-1" cx="368.41" cy="2362.1" r="0.28"/><circle class="cls-1" cx="730.65" cy="2267.02" r="0.75"/><circle class="cls-1" cx="261.62" cy="2640.63" r="0.63"/><circle class="cls-1" cx="651.14" cy="2738.11" r="0.28"/><circle class="cls-1" cx="623.63" cy="2693.94" r="0.28"/><circle class="cls-1" cx="323.46" cy="2652.85" r="0.28"/><circle class="cls-1" cx="581.37" cy="2734.59" r="0.28"/><circle class="cls-1" cx="680.24" cy="2803.28" r="0.28"/><circle class="cls-1" cx="233.39" cy="2820.07" r="0.28"/><circle class="cls-1" cx="229.34" cy="2822.61" r="0.28"/><circle class="cls-1" cx="194.69" cy="2811.44" r="0.28"/><circle class="cls-1" cx="135.02" cy="2980.82" r="0.75"/><circle class="cls-1" cx="727.77" cy="3151.2" r="0.47"/><circle class="cls-1" cx="624.66" cy="2995.79" r="0.63"/><circle class="cls-1" cx="623.71" cy="3013.42" r="0.28"/><circle class="cls-1" cx="619.98" cy="3009.35" r="0.28"/><circle class="cls-1" cx="614.34" cy="3014.27" r="0.47"/><circle class="cls-1" cx="228.93" cy="3138.89" r="0.28"/><circle class="cls-1" cx="401.43" cy="3577.91" r="0.28"/><circle class="cls-1" cx="516.62" cy="3014.11" r="0.47"/><circle class="cls-1" cx="510.19" cy="3012.59" r="0.28"/><circle class="cls-1" cx="811.17" cy="2896.81" r="0.75"/><circle class="cls-1" cx="863.97" cy="2918.78" r="0.28"/><circle class="cls-1" cx="859.45" cy="2925.17" r="0.28"/><circle class="cls-1" cx="183.41" cy="2870.17" r="0.47"/><circle class="cls-1" cx="800.98" cy="2447.89" r="0.28"/><circle class="cls-1" cx="850.93" cy="2221.26" r="0.28"/><circle class="cls-1" cx="846.42" cy="2227.66" r="0.28"/><circle class="cls-1" cx="665.52" cy="1829.86" r="0.47"/><circle class="cls-1" cx="142.38" cy="1558.67" r="0.47"/><circle class="cls-1" cx="652.4" cy="1353.45" r="0.28"/><circle class="cls-1" cx="643.15" cy="1386.92" r="0.28"/><line class="cls-3" x1="614.81" y1="1345.43" x2="614.98" y2="1353.05"/><line class="cls-3" x1="616.53" y1="1347.14" x2="613.26" y2="1350.6"/><line class="cls-3" x1="616.63" y1="1350.51" x2="613.16" y2="1347.24"/><line class="cls-3" x1="617.74" y1="1348.79" x2="612.05" y2="1348.95"/><circle class="cls-1" cx="673.63" cy="1221.12" r="0.28"/><circle class="cls-1" cx="659.69" cy="1269.2" r="0.75"/><circle class="cls-1" cx="203.3" cy="1175.39" r="0.47"/><circle class="cls-1" cx="526.45" cy="288.82" r="0.75"/><circle class="cls-1" cx="512" cy="278.17" r="0.28"/><circle class="cls-1" cx="720.6" cy="298.51" r="0.28"/><circle class="cls-1" cx="119.75" cy="78.66" r="0.75"/><circle class="cls-1" cx="16.03" cy="181.04" r="0.63"/><circle class="cls-1" cx="760.59" cy="487.12" r="0.47"/><circle class="cls-1" cx="793.85" cy="439.47" r="0.28"/><circle class="cls-1" cx="313.38" cy="554.43" r="0.28"/><circle class="cls-1" cx="308.11" cy="556.09" r="0.28"/><circle class="cls-1" cx="316.33" cy="555.55" r="0.28"/><circle class="cls-1" cx="333.75" cy="545.12" r="0.28"/><circle class="cls-1" cx="227.19" cy="573.51" r="0.47"/><circle class="cls-1" cx="203.3" cy="773.61" r="0.47"/><circle class="cls-1" cx="252.09" cy="743.77" r="0.47"/></g></g></svg>